<?xml version="1.0" standalone="no"?>
<!DOCTYPE svg PUBLIC "-//W3C//DTD SVG 20010904//EN"
 "http://www.w3.org/TR/2001/REC-SVG-20010904/DTD/svg10.dtd">
<svg version="1.0" xmlns="http://www.w3.org/2000/svg"
 width="1264.000000pt" height="680.000000pt" viewBox="0 0 1264.000000 680.000000"
 preserveAspectRatio="xMidYMid meet">

<g transform="translate(0.000000,680.000000) scale(0.100000,-0.100000)"
fill="#000000" stroke="none">
<path d="M0 4823 l1 -1978 24 47 c26 48 45 69 45 46 -1 -52 -24 -156 -45 -204
-25 -56 -25 -57 -25 -374 l0 -317 40 -85 c22 -47 60 -113 84 -146 70 -94 119
-172 114 -177 -10 -10 -59 38 -97 93 -52 76 -84 104 -113 100 l-23 -3 -3 -912
-2 -913 3195 0 c2242 0 3195 3 3195 11 0 5 -5 7 -12 3 -8 -5 -9 -2 -5 10 4 10
3 15 -3 11 -5 -3 -17 9 -26 27 -9 18 -24 38 -32 44 -11 8 -16 40 -19 125 -4
101 -2 117 15 138 l19 24 12 -77 c6 -42 19 -102 29 -134 11 -31 27 -85 37
-120 l18 -62 79 0 c60 0 78 3 72 13 -6 10 -4 10 7 0 10 -10 630 -13 3031 -13
l3018 0 0 1038 0 1039 -24 22 c-14 13 -30 36 -37 53 -11 26 -10 31 9 44 47 33
52 43 52 116 l0 71 -98 101 c-53 56 -115 128 -137 161 -21 33 -43 62 -47 63
-17 7 -113 159 -165 261 -45 87 -53 112 -53 157 l0 54 34 0 c52 0 64 7 58 36
-2 14 1 36 8 49 14 27 10 47 -11 50 -27 4 -244 24 -378 36 -74 6 -145 15 -159
20 -13 5 -38 9 -55 9 -18 0 -66 14 -108 31 -70 28 -77 33 -82 62 -2 18 -3 34
-1 36 1 2 39 8 83 14 48 6 81 15 81 22 0 6 -11 22 -24 34 -21 20 -27 21 -47
10 -25 -13 -249 -6 -356 11 -32 6 -83 10 -113 10 -83 1 -219 24 -275 48 -27
11 -63 25 -80 30 l-30 10 27 1 c15 1 30 5 33 11 9 15 -43 24 -60 10 -9 -8 -15
-8 -15 -2 0 6 6 13 13 16 8 3 7 8 -6 16 -17 11 -16 13 8 41 20 25 25 41 25 85
0 30 2 54 5 54 2 0 15 -11 29 -25 17 -17 20 -25 11 -25 -28 0 -16 -44 19 -72
22 -18 36 -39 40 -62 7 -34 9 -36 46 -36 40 0 40 0 40 38 0 40 -29 113 -55
139 -13 12 -14 18 -4 24 25 15 61 -50 89 -158 l11 -43 137 0 c181 0 182 1 182
59 0 59 -27 263 -41 315 -12 45 -28 136 -23 136 7 0 31 -67 43 -120 26 -112
54 -188 72 -193 17 -5 39 9 39 25 0 13 69 90 120 133 13 11 20 15 17 8 -4 -6
-3 -14 2 -18 13 -7 19 -30 87 -295 30 -118 58 -218 63 -223 6 -6 41 -5 90 3
44 7 102 10 128 6 l48 -6 -29 16 c-16 9 -55 19 -87 21 -67 7 -63 0 -78 128
-38 332 -12 588 90 902 27 84 45 123 55 123 8 0 31 -16 51 -36 20 -20 60 -48
90 -61 29 -13 53 -26 53 -27 0 -2 -13 -34 -28 -72 -40 -96 -70 -193 -94 -299
-30 -133 -36 -440 -11 -590 17 -102 20 -110 42 -113 22 -3 23 -1 17 35 -3 21
-9 125 -12 230 -7 208 -1 273 42 442 57 219 229 496 411 660 54 48 187 144
213 153 7 2 10 30 8 81 l-3 79 -94 -63 c-109 -73 -295 -251 -371 -356 -28 -40
-52 -73 -53 -73 -1 0 -28 24 -59 54 -32 29 -78 63 -103 75 l-45 21 29 47 c45
76 75 118 148 204 77 93 198 199 225 199 10 0 18 3 18 8 0 17 225 65 272 57
l38 -7 0 711 0 711 -6315 0 -6315 0 0 -1977z m2139 1817 l13 -100 57 0 c74 0
136 -31 176 -88 26 -38 30 -52 30 -112 0 -60 -4 -74 -30 -112 -39 -56 -102
-88 -172 -88 -29 0 -53 -3 -53 -7 0 -5 -21 -30 -45 -58 -25 -27 -53 -67 -64
-87 -24 -48 -41 -33 -41 38 0 28 -3 66 -6 83 l-6 31 -383 0 c-380 0 -382 0
-426 23 -24 13 -57 43 -74 66 -26 37 -30 51 -30 111 0 60 4 74 30 111 60 86
48 84 488 87 l387 3 0 45 c0 53 34 119 83 160 27 23 32 24 42 10 7 -8 17 -60
24 -116z m-1559 -153 c0 -2 -10 -12 -21 -23 -22 -19 -22 -19 -10 4 10 18 31
31 31 19z m-48 -79 c-8 -8 -9 -4 -5 13 4 13 8 18 11 10 2 -7 -1 -18 -6 -23z
m108 -28 c0 -5 -5 -10 -11 -10 -5 0 -7 5 -4 10 3 6 8 10 11 10 2 0 4 -4 4 -10z
m7344 -37 l15 -28 1 28 c0 16 4 26 10 22 13 -8 13 -85 0 -85 -6 0 -16 12 -23
27 l-12 27 -6 -30 c-6 -24 -7 -21 -8 19 0 26 1 47 4 47 2 0 11 -12 19 -27z
m96 17 c0 -5 -9 -10 -20 -10 -28 0 -25 -20 3 -21 l22 -2 -22 -4 c-32 -6 -29
-31 5 -36 25 -4 25 -4 -5 -6 -33 -1 -33 0 -33 44 0 41 2 45 25 45 14 0 25 -4
25 -10z m65 -4 c17 22 20 12 5 -17 -8 -13 -7 -25 0 -39 6 -12 7 -20 1 -20 -5
0 -12 6 -15 13 -5 10 -7 10 -12 0 -3 -7 -10 -13 -15 -13 -6 0 -5 8 1 20 7 14
8 26 0 39 -15 29 -12 39 5 17 15 -20 15 -20 30 0z m45 -32 c0 -48 23 -40 31
12 l7 39 -2 -45 c-1 -41 -3 -45 -26 -45 -22 0 -25 5 -28 43 -2 29 0 42 7 37 6
-3 11 -22 11 -41z m110 31 c8 -9 9 -15 2 -15 -6 0 -14 5 -17 10 -4 6 -11 7
-17 4 -6 -4 1 -16 18 -29 16 -12 24 -27 20 -33 -8 -14 -56 -16 -56 -3 0 5 9 7
20 4 27 -7 26 11 -2 29 -14 9 -19 20 -15 31 8 21 30 22 47 2z m458 -17 c12 36
27 45 16 10 -25 -81 -38 -84 -48 -13 l-6 40 13 -35 14 -34 11 32z m91 -47 c1
-11 -2 -11 -14 -1 -12 10 -18 10 -30 0 -20 -17 -20 0 1 48 l16 37 13 -35 c8
-19 14 -41 14 -49z m39 1 c8 -2 12 8 12 32 0 19 5 38 11 41 7 5 9 -8 7 -37 -3
-38 -6 -43 -28 -43 -23 0 -25 4 -26 45 l-2 45 7 -39 c3 -22 12 -41 19 -44z
m85 -5 c15 -3 12 -5 -10 -6 -32 -1 -33 0 -33 37 0 53 14 63 18 14 2 -33 7 -42
25 -45z m85 69 c-10 -7 -19 -28 -20 -47 l-1 -34 -4 34 c-3 19 -12 41 -21 48
-15 11 -11 12 23 12 35 0 38 -1 23 -13z m470 2 c19 -19 14 -37 -12 -44 -14 -3
-27 -13 -29 -22 -3 -10 -5 4 -6 31 -1 39 2 47 17 47 10 0 23 -5 30 -12z m69 4
c10 -6 15 -82 5 -82 -3 0 -11 8 -18 18 -13 16 -13 16 -14 0 0 -10 -4 -18 -10
-18 -5 0 -10 20 -10 45 0 36 3 45 18 45 9 0 22 -4 29 -8z m72 -6 c7 -8 11 -27
9 -43 -2 -22 -8 -28 -28 -28 -21 0 -26 5 -28 34 -5 45 23 66 47 37z m64 -69
c15 -3 12 -5 -10 -6 -32 -1 -33 0 -33 37 0 53 14 63 18 14 2 -33 7 -42 25 -45z
m87 66 c10 -17 10 -17 20 0 13 21 33 22 50 2 15 -18 -1 -20 -18 -3 -9 9 -13 8
-18 -5 -8 -23 -1 -50 15 -55 10 -3 12 0 8 12 -4 10 -1 16 8 16 20 0 19 -29 -1
-37 -9 -3 -26 -1 -37 6 -14 9 -22 10 -30 2 -16 -16 -44 -13 -51 5 -20 53 26
102 54 57z m118 -61 c8 -2 12 8 12 32 0 19 5 38 11 41 7 5 9 -8 7 -37 -3 -38
-6 -43 -28 -43 -23 0 -25 4 -26 45 l-2 45 7 -39 c3 -22 12 -41 19 -44z m97 68
c-3 -5 -13 -10 -21 -10 -20 0 -17 -20 4 -21 16 -1 16 -2 0 -6 -26 -6 -22 -31
5 -36 16 -3 13 -5 -10 -6 -33 -1 -33 0 -33 44 0 44 1 45 31 45 17 0 28 -4 24
-10z m469 -50 c5 -25 4 -31 -3 -20 -9 12 -14 13 -31 2 -19 -12 -20 -11 -14 15
4 16 11 37 17 47 11 23 21 10 31 -44z m77 25 c7 -41 1 -55 -27 -55 -22 0 -24
4 -24 46 0 41 2 45 22 42 16 -2 25 -12 29 -33z m72 14 c5 -9 7 -28 3 -42 -8
-34 -42 -36 -57 -3 -22 47 27 88 54 45z m45 -57 c8 -2 12 8 12 32 0 19 5 38
11 41 7 5 9 -8 7 -37 -3 -38 -6 -43 -28 -43 -23 0 -25 4 -26 45 l-2 45 7 -39
c3 -22 12 -41 19 -44z m102 68 c0 -5 -4 -10 -10 -10 -5 0 -10 -16 -10 -35 0
-19 -4 -35 -10 -35 -5 0 -10 16 -10 35 0 19 -4 35 -10 35 -5 0 -10 5 -10 10 0
6 14 10 30 10 17 0 30 -4 30 -10z m468 -10 c4 -13 3 -13 -11 -2 -13 11 -17 10
-26 -7 -11 -19 -6 -51 8 -51 4 0 13 6 20 13 11 10 13 9 9 -3 -3 -8 -16 -15
-29 -15 -19 0 -25 6 -27 28 -6 47 43 79 56 37z m74 -6 c14 -29 2 -57 -27 -62
-31 -7 -49 50 -23 76 19 19 37 14 50 -14z m42 -1 l15 -28 1 28 c0 16 4 26 10
22 13 -8 13 -85 0 -85 -6 0 -16 12 -23 27 l-12 27 -6 -30 c-6 -24 -7 -21 -8
19 0 26 1 47 4 47 2 0 11 -12 19 -27z m106 17 c0 -5 -4 -10 -10 -10 -5 0 -10
-16 -10 -35 0 -19 -4 -35 -10 -35 -5 0 -10 16 -10 35 0 19 -4 35 -10 35 -5 0
-10 5 -10 10 0 6 14 10 30 10 17 0 30 -4 30 -10z m64 -50 c5 -25 4 -31 -3 -20
-9 13 -14 13 -32 2 -19 -12 -20 -12 -14 10 20 63 26 73 35 58 4 -8 11 -31 14
-50z m74 40 c4 -13 3 -13 -11 -2 -13 11 -17 10 -26 -7 -11 -19 -6 -51 8 -51 4
0 13 6 20 13 11 10 13 9 9 -3 -3 -8 -16 -15 -29 -15 -19 0 -25 6 -27 28 -6 47
43 79 56 37z m70 6 c-10 -7 -19 -28 -20 -47 l-1 -34 -4 34 c-3 19 -12 41 -21
48 -15 11 -11 12 23 12 35 0 38 -1 23 -13z m439 -28 c-3 -7 -5 -2 -5 12 0 14
2 19 5 13 2 -7 2 -19 0 -25z m30 0 c-3 -7 -5 -2 -5 12 0 14 2 19 5 13 2 -7 2
-19 0 -25z m30 0 c-3 -7 -5 -2 -5 12 0 14 2 19 5 13 2 -7 2 -19 0 -25z m30 0
c-3 -7 -5 -2 -5 12 0 14 2 19 5 13 2 -7 2 -19 0 -25z m-7470 -58 c28 -22 64
-26 93 -10 15 8 28 -1 78 -55 86 -94 132 -186 138 -278 l6 -72 -21 25 c-11 14
-33 48 -47 75 -64 121 -167 244 -266 317 -13 9 -19 17 -15 18 5 0 20 -9 34
-20z m-2827 -545 l25 -30 -27 24 c-16 14 -28 29 -28 34 0 6 1 8 3 6 1 -2 13
-17 27 -34z m-1310 -3 c0 -10 -7 -27 -15 -38 -8 -10 -15 -22 -15 -26 0 -5 69
-8 153 -8 160 0 223 -11 300 -50 82 -42 169 -148 182 -222 7 -39 12 -42 39
-32 14 5 16 28 16 155 l0 149 320 0 320 0 0 -54 c0 -49 2 -54 24 -58 24 -5 25
-3 28 59 2 46 -1 68 -12 81 -9 9 -5 8 9 -3 21 -18 43 -20 260 -25 l236 -5 66
-32 c127 -63 204 -178 239 -355 16 -83 20 -144 20 -315 0 -183 2 -213 15 -213
12 0 15 -17 15 -92 0 -50 3 -88 8 -84 4 4 7 188 8 409 1 221 2 466 2 545 l2
142 315 0 315 0 0 -164 c0 -140 -2 -165 -16 -170 -9 -3 -67 -6 -130 -6 l-114
0 0 -110 0 -110 110 0 110 0 0 -53 c0 -30 3 -102 7 -160 l6 -107 -116 0 -117
0 0 -118 0 -118 133 0 132 1 3 -173 2 -172 -322 2 -323 3 -1 134 c-1 119 -3
136 -20 148 -10 7 -27 20 -36 28 -15 13 -19 9 -43 -42 -14 -30 -25 -58 -25
-60 0 -18 -80 -109 -118 -135 -86 -59 -137 -68 -393 -68 l-229 0 0 646 c0 585
-1 646 -16 640 -9 -3 -20 -6 -24 -6 -5 0 -10 -37 -12 -82 l-3 -83 -127 0 c-69
0 -129 -3 -133 -7 -3 -3 -3 -54 1 -112 l7 -106 108 0 109 0 0 -160 0 -160
-110 0 -110 0 0 -115 0 -115 130 0 130 0 0 -175 0 -175 -320 1 -320 2 0 559
c0 527 -1 559 -17 556 -15 -3 -19 -19 -25 -93 -12 -145 -49 -229 -124 -285
-19 -14 -34 -27 -34 -30 0 -3 16 -14 36 -25 45 -24 80 -84 93 -160 5 -33 13
-162 16 -287 l7 -228 -179 0 -180 0 -7 92 c-3 50 -6 154 -6 230 0 154 -13 208
-49 208 -21 0 -21 -4 -21 -265 l0 -265 -180 0 -180 0 0 725 0 725 50 0 c28 0
50 3 50 8 0 4 14 24 31 45 33 40 59 48 59 19z m4326 -70 c6 -4 43 -124 83
-267 41 -143 83 -294 95 -335 11 -41 22 -68 23 -60 11 63 51 365 49 368 -2 1
-17 -5 -34 -15 -17 -10 -34 -14 -38 -10 -5 4 -10 77 -12 162 l-4 155 171 0
171 0 0 -725 0 -725 -176 2 -177 3 -66 287 -66 288 -3 -290 -2 -290 -165 0
-165 0 0 725 0 724 128 4 c70 1 138 4 152 5 14 1 30 -2 36 -6z m-801 -34 c3
-18 4 -94 3 -168 l-3 -135 -120 -3 -120 -3 3 -114 3 -115 99 0 c58 0 101 -4
105 -11 4 -5 4 -77 0 -160 l-8 -149 -98 0 -99 0 0 -280 0 -280 -190 0 -190 0
0 725 0 725 305 0 304 0 6 -32z m425 -693 l0 -725 -190 0 -190 0 0 725 0 725
190 0 190 0 0 -725z m1570 560 l0 -165 -130 0 -130 0 0 -115 0 -115 110 0 110
0 0 -160 0 -160 -110 0 -110 0 0 -120 0 -120 135 0 135 0 0 -165 0 -165 -320
0 -320 0 0 725 0 725 315 0 315 0 0 -165z m5709 -141 c26 -34 30 -119 5 -128
-59 -22 -122 51 -108 124 6 27 10 30 45 30 29 0 42 -6 58 -26z m-219 -14 c0
-5 -4 -10 -10 -10 -5 0 -10 5 -10 10 0 6 5 10 10 10 6 0 10 -4 10 -10z m-105
-75 c74 -33 140 -101 188 -195 62 -120 45 -190 -45 -190 -85 0 -216 96 -262
193 -33 70 -43 149 -21 171 9 9 13 16 9 16 -3 0 -1 7 6 15 18 22 60 18 125
-10z m288 -102 c34 -7 33 -12 -3 -41 l-29 -23 -22 42 -21 42 24 -8 c12 -4 35
-9 51 -12z m-1643 -152 c0 -17 -12 -41 -21 -41 -5 0 -9 11 -9 25 0 16 6 25 15
25 8 0 15 -4 15 -9z m1231 -47 c46 -51 141 -114 197 -131 31 -9 58 -18 60 -19
1 -1 -3 -13 -9 -28 l-12 -26 -38 34 c-56 51 -75 58 -142 54 l-61 -3 -12 40
c-31 109 -28 127 17 79z m-1684 -145 c-5 -4 -7 -11 -4 -16 8 -13 -61 -83 -81
-83 -22 0 -62 51 -62 79 0 37 11 44 75 51 37 4 54 2 66 -10 10 -9 12 -18 6
-21z m2251 -39 c23 -16 48 -43 57 -60 15 -28 14 -30 -3 -30 -34 0 -121 77
-122 108 0 20 25 14 68 -18z m-403 -24 c40 -42 51 -90 30 -123 -51 -77 -169
54 -125 138 17 30 58 24 95 -15z m-1148 -28 c29 -31 54 -66 57 -83 5 -26 11
-630 7 -751 -1 -34 -5 -43 -28 -53 -21 -10 -28 -9 -35 1 -8 10 -11 10 -15 1
-9 -24 -40 -14 -53 16 -6 16 -25 35 -40 41 -16 7 -31 18 -34 26 -7 18 -26 18
-26 1 0 -7 -7 -22 -16 -33 -15 -18 -15 -17 -10 14 5 30 4 33 -14 27 -16 -5
-19 -3 -13 11 5 13 2 15 -15 10 -17 -6 -19 -3 -15 14 4 15 14 20 39 20 33 0
60 20 27 20 -21 1 -63 33 -63 49 0 6 8 11 18 11 32 1 172 85 172 104 0 3 -12
6 -27 6 -16 0 -35 5 -43 10 -13 8 -13 11 -1 22 12 11 13 10 6 -2 -6 -12 -4
-12 9 1 16 15 16 19 2 54 -20 46 -20 46 2 38 9 -3 0 11 -20 33 -45 47 -46 54
-12 54 14 0 23 4 19 10 -3 5 -12 7 -20 3 -10 -3 -21 8 -34 38 -22 49 -20 60
11 51 14 -3 19 -2 14 6 -4 7 -1 12 9 12 12 0 14 4 6 19 -8 14 -5 21 14 31 18
10 25 22 25 44 0 37 31 176 40 176 3 0 29 -24 57 -52z m1166 -152 c60 0 67 -5
41 -30 -20 -21 -69 -20 -105 1 -37 22 -49 48 -16 36 12 -4 48 -8 80 -7z
m-1668 -37 c0 -7 -8 -15 -17 -17 -12 -2 -15 2 -11 18 6 23 28 22 28 -1z m-139
-34 c-6 -54 -15 -73 -27 -54 -13 21 -11 47 7 74 9 14 18 25 20 25 2 0 2 -20 0
-45z m384 -5 c0 -5 -5 -10 -11 -10 -5 0 -7 5 -4 10 3 6 8 10 11 10 2 0 4 -4 4
-10z m-136 -22 c15 -60 -50 -338 -80 -338 -9 0 4 136 17 178 17 52 6 58 -35
19 -21 -20 -42 -37 -47 -37 -5 0 -17 -16 -26 -35 -9 -19 -23 -35 -31 -35 -8 0
-20 -6 -26 -14 -17 -21 -71 -27 -92 -11 -12 9 -14 14 -6 15 7 0 11 4 8 9 -5 7
7 25 42 66 25 28 65 55 89 61 47 10 83 26 83 36 0 6 12 8 29 5 26 -5 29 -3 40
32 6 21 11 46 11 55 0 24 17 19 24 -6z m-118 -54 c-8 -31 -51 -34 -59 -4 -3
10 -2 19 2 18 19 -2 29 5 41 30 14 27 14 27 18 3 2 -12 1 -34 -2 -47z m1712
52 c38 1 38 3 17 -141 -8 -55 -15 -129 -15 -165 -1 -126 -11 -122 -46 16 -18
71 -44 169 -58 218 l-25 88 47 -8 c26 -4 62 -8 80 -8z m-2237 -69 c-8 -8 -11
-7 -11 4 0 20 13 34 18 19 3 -7 -1 -17 -7 -23z m739 -24 c28 -75 23 -116 -6
-53 -12 25 -25 60 -29 78 -11 53 12 37 35 -25z m40 47 c0 -5 -5 -10 -11 -10
-5 0 -7 5 -4 10 3 6 8 10 11 10 2 0 4 -4 4 -10z m38 -61 c13 -16 19 -29 14
-29 -9 0 -33 25 -46 48 -14 23 9 11 32 -19z m-548 -45 c0 -8 -7 -14 -15 -14
-15 0 -21 21 -9 33 10 9 24 -2 24 -19z m1540 -67 c0 -5 -4 -5 -10 -2 -5 3 -10
14 -10 23 0 15 2 15 10 2 5 -8 10 -19 10 -23z m-533 1 c-3 -8 -6 -5 -6 6 -1
11 2 17 5 13 3 -3 4 -12 1 -19z m-1667 -15 c-1 -18 -18 -35 -24 -24 -4 6 -4
16 -1 21 7 12 25 13 25 3z m1220 -53 c13 -9 13 -10 0 -10 -8 0 -22 5 -30 10
-13 9 -13 10 0 10 8 0 22 -5 30 -10z m47 -16 c-3 -3 -12 -4 -19 -1 -8 3 -5 6
6 6 11 1 17 -2 13 -5z m-592 -104 c-3 -5 -17 -10 -31 -10 -13 0 -24 5 -24 10
0 6 14 10 31 10 17 0 28 -4 24 -10z m398 -52 c15 -7 27 -16 27 -19 0 -13 -33
-20 -40 -9 -4 7 -18 8 -34 4 -31 -7 -96 3 -96 16 0 8 25 13 96 18 11 1 32 -4
47 -10z m665 -13 c-3 -3 -9 2 -12 12 -6 14 -5 15 5 6 7 -7 10 -15 7 -18z
m-10263 -114 c-38 -8 -42 -42 -5 -52 25 -7 25 -7 -3 -8 -39 -1 -33 -34 8 -42
27 -6 26 -7 -12 -8 l-43 -1 0 60 0 60 43 -1 c38 -1 39 -2 12 -8z m695 -28 l14
-38 14 38 c17 43 52 53 52 15 0 -21 4 -23 50 -20 35 3 50 8 50 18 0 8 7 14 15
14 8 0 15 -7 15 -15 0 -11 12 -15 44 -15 25 0 48 -5 52 -11 4 -8 9 -8 17 0 6
6 28 11 49 11 35 0 38 -2 39 -27 l1 -28 7 25 c7 24 10 25 105 28 60 1 103 -2
111 -8 9 -8 15 -8 20 0 9 14 58 13 73 -2 20 -20 14 -28 -24 -28 -22 0 -33 -4
-29 -11 4 -6 20 -7 38 -3 28 6 30 5 18 -10 -18 -21 -67 -21 -80 2 -10 16 -10
16 -11 0 0 -10 -7 -18 -15 -18 -10 0 -15 10 -15 30 0 17 -4 30 -10 30 -5 0
-10 -13 -10 -30 0 -20 -5 -30 -15 -30 -10 0 -15 10 -15 30 0 17 -4 30 -10 30
-5 0 -10 -13 -10 -30 l0 -30 -60 0 c-41 0 -60 4 -61 13 -1 6 -4 1 -8 -13 -6
-21 -14 -25 -50 -28 -28 -2 -41 0 -36 7 3 6 18 12 33 12 27 1 27 1 -3 8 -16 3
-44 5 -61 3 l-31 -4 28 -75 c15 -41 30 -77 33 -80 3 -3 18 -5 33 -5 15 0 33
-8 40 -17 11 -15 12 -14 13 2 0 9 7 17 15 17 19 0 19 -2 -2 -61 -19 -54 -43
-65 -44 -21 0 15 -4 36 -9 47 -7 17 -9 15 -9 -13 -1 -18 13 -62 29 -99 43 -94
32 -100 -15 -9 -35 66 -43 76 -67 76 -16 0 -28 6 -29 13 0 10 -2 10 -6 0 -2
-7 -11 -13 -19 -13 -11 0 -13 -13 -8 -69 7 -78 0 -121 -20 -121 -19 0 -23 14
-25 101 -1 42 -6 89 -11 105 -8 28 -9 28 -15 7 -13 -42 -25 -24 -25 37 0 42 4
60 13 60 9 0 12 13 9 43 -3 40 -2 41 13 22 9 -11 18 -30 22 -42 5 -23 13 -27
46 -24 14 2 17 -6 18 -46 1 -26 3 -39 6 -28 3 11 9 24 13 29 9 9 -19 89 -48
138 -8 15 -25 28 -36 30 -14 2 -23 13 -27 33 -4 17 -7 24 -8 18 0 -7 -14 -13
-31 -13 -16 0 -30 -5 -30 -11 0 -7 11 -8 31 -4 24 5 30 4 27 -6 -6 -18 -55
-24 -74 -8 -16 13 -18 5 -4 -20 16 -31 50 -121 45 -121 -3 0 -28 29 -56 65
-28 36 -56 65 -63 65 -7 0 -18 10 -24 23 l-11 22 0 -22 c-1 -14 -7 -23 -16
-23 -12 0 -15 13 -15 60 0 51 3 60 18 60 12 0 23 -13 32 -37z m810 -13 c0 -46
2 -50 24 -50 19 0 25 6 28 28 3 25 6 27 53 28 28 1 53 -3 58 -10 5 -8 9 -8 15
0 4 7 44 12 102 12 89 1 94 0 73 -15 -13 -8 -23 -26 -23 -38 0 -22 -4 -23 -52
-22 -43 2 -54 6 -64 24 -10 22 -11 21 -23 -17 -14 -47 -41 -55 -41 -12 0 15
-5 34 -10 42 -8 12 -10 9 -10 -12 l0 -28 -80 0 -80 0 0 60 c0 47 3 60 15 60
11 0 15 -12 15 -50z m-1350 25 c0 -15 15 -19 58 -15 23 2 52 -15 52 -31 0 -5
-13 -9 -30 -9 -30 0 -40 -13 -20 -25 6 -4 18 -1 26 6 16 13 30 6 19 -10 -3 -6
-31 -10 -63 -9 -55 3 -57 4 -60 33 -2 16 -9 33 -15 37 -9 6 -9 8 1 8 6 0 12 7
12 15 0 8 5 15 10 15 6 0 10 -7 10 -15z m240 0 c0 -8 7 -15 15 -15 8 0 15 7
15 15 0 8 7 15 15 15 8 0 15 -7 15 -15 0 -8 9 -15 20 -15 11 0 23 -7 27 -16 5
-15 7 -15 15 0 11 19 59 21 76 4 20 -20 14 -28 -24 -28 -32 0 -35 -2 -24 -15
9 -11 16 -13 24 -5 5 5 16 10 24 10 12 0 12 -3 2 -15 -18 -22 -57 -18 -74 7
l-16 22 0 -22 c0 -31 -18 -27 -22 5 -4 39 -28 42 -28 3 0 -30 -1 -31 -37 -28
-34 3 -38 6 -41 33 -2 16 -9 33 -15 37 -9 6 -9 8 1 8 6 0 12 7 12 15 0 8 5 15
10 15 6 0 10 -7 10 -15z m3517 -72 c-2 -16 -4 -5 -4 22 0 28 2 40 4 28 2 -13
2 -35 0 -50z m-3803 41 c11 -29 7 -64 -9 -64 -10 0 -15 10 -15 30 0 20 -5 30
-15 30 -10 0 -15 -10 -15 -30 0 -16 -4 -30 -10 -30 -5 0 -10 18 -10 40 0 39 1
40 34 40 22 0 36 -6 40 -16z m204 5 c-11 -6 -18 -22 -18 -39 0 -17 -4 -30 -10
-30 -5 0 -10 18 -10 40 0 37 2 40 28 40 23 -1 24 -2 10 -11z m9347 -8 c3 -10
17 -22 30 -25 27 -7 30 -13 16 -35 -6 -9 -20 -11 -47 -7 -37 7 -39 9 -41 47
-2 33 1 39 17 39 10 0 21 -9 25 -19z m-6057 -34 c2 -28 0 -37 -13 -37 -19 0
-40 43 -31 65 11 31 41 13 44 -28z m6748 16 c-7 -7 -26 7 -26 19 0 6 6 6 15
-2 9 -7 13 -15 11 -17z m-511 -62 c3 -6 -4 -15 -16 -21 -23 -13 -83 5 -73 21
7 12 81 11 89 0z m-1060 -11 c3 -5 -14 -14 -37 -20 -24 -6 -49 -13 -56 -15
-18 -6 -28 25 -11 36 19 12 96 11 104 -1z m-4878 -32 c-3 -7 -5 -2 -5 12 0 14
2 19 5 13 2 -7 2 -19 0 -25z m2048 -138 c4 -25 5 -42 1 -39 -8 7 -46 160 -45
179 1 22 35 -87 44 -140z m2345 138 c0 -7 -11 -18 -25 -25 -28 -13 -30 -11
-13 17 14 22 38 27 38 8z m1534 -18 c37 -14 32 -32 -6 -28 -22 2 -34 9 -36 21
-4 19 6 21 42 7z m-996 -40 c-14 -22 -18 -23 -42 -14 -32 12 -13 30 37 33 15
1 15 -2 5 -19z m-8868 -43 c0 -46 14 -69 36 -60 9 3 14 22 14 54 0 27 5 49 10
49 6 0 10 -25 10 -55 0 -51 -2 -55 -27 -61 -41 -11 -58 6 -61 65 -2 31 1 51 7
51 6 0 11 -19 11 -43z m200 -17 c0 -33 -4 -60 -10 -60 -6 0 -10 27 -10 60 0
33 4 60 10 60 6 0 10 -27 10 -60z m1095 50 c-3 -5 -17 -10 -31 -10 -15 0 -24
-6 -24 -15 0 -8 9 -15 19 -15 11 0 23 -4 26 -10 4 -6 -5 -10 -19 -10 -16 0
-26 -6 -26 -15 0 -10 10 -15 31 -15 17 0 28 4 24 10 -3 5 -1 19 5 30 12 22 64
28 76 9 4 -8 9 -8 17 0 15 15 60 14 75 -1 9 -9 12 -9 12 0 0 7 16 12 40 12 24
0 40 -5 40 -12 0 -9 3 -9 12 0 18 18 75 15 87 -5 10 -17 10 -17 11 0 0 15 11
17 80 17 65 0 82 -3 87 -16 5 -15 7 -15 15 0 5 9 15 16 23 16 22 0 -16 -104
-40 -109 -13 -2 -16 1 -12 13 4 9 2 26 -3 38 l-9 23 0 -22 c-1 -16 -7 -23 -21
-23 -16 0 -20 7 -20 31 0 17 -4 28 -10 24 -5 -3 -10 -17 -10 -31 0 -15 -6 -24
-15 -24 -10 0 -15 10 -15 30 0 17 -4 30 -10 30 -5 0 -10 -13 -10 -30 0 -20 -5
-30 -15 -30 -8 0 -15 8 -15 18 -1 16 -1 16 -11 0 -8 -14 -22 -18 -64 -17 -50
2 -54 3 -57 27 -5 38 -28 40 -28 3 0 -21 -5 -31 -15 -31 -8 0 -15 5 -15 12 0
9 -3 9 -12 0 -15 -15 -64 -16 -73 -2 -4 7 -11 8 -18 1 -7 -5 -47 -10 -89 -10
l-78 -1 0 60 0 60 46 0 c27 0 43 -4 39 -10z m7035 0 c0 -9 -32 -30 -46 -30 -4
0 1 9 11 20 19 21 35 26 35 10z m1818 -12 c-3 -19 1 -23 21 -25 102 -7 115
-11 136 -35 12 -14 33 -28 46 -31 28 -7 79 -50 79 -66 0 -11 -40 -11 -55 0
-25 18 -196 99 -210 99 -19 0 -40 43 -32 64 9 24 20 19 15 -6z m-9658 -2 c0
-9 12 -16 28 -18 23 -3 27 -8 30 -40 2 -29 0 -38 -12 -38 -11 0 -16 10 -16 31
0 38 -24 35 -28 -4 -6 -49 -22 -28 -22 28 0 30 5 55 10 55 6 0 10 -6 10 -14z
m140 -1 c0 -8 7 -15 15 -15 8 0 15 7 15 15 0 8 5 15 10 15 6 0 10 -6 10 -14 0
-9 12 -16 28 -18 23 -3 27 -8 30 -40 2 -29 0 -38 -12 -38 -11 0 -16 10 -16 31
0 38 -24 35 -28 -4 -3 -23 -8 -27 -37 -27 -30 0 -36 4 -41 28 -3 15 -7 32 -9
37 -3 14 14 45 25 45 6 0 10 -7 10 -15z m9445 -26 c4 -13 -5 -30 -34 -59 -22
-22 -42 -40 -45 -40 -10 0 -6 59 4 65 6 3 10 13 10 20 0 8 8 24 17 35 19 21
37 13 48 -21z m-9917 -1 c18 -18 15 -68 -3 -68 -10 0 -15 10 -15 30 0 20 -5
30 -15 30 -10 0 -15 -10 -15 -30 0 -16 -4 -30 -10 -30 -5 0 -10 18 -10 40 0
37 2 40 28 40 15 0 33 -5 40 -12z m130 0 c20 -20 14 -28 -19 -28 -17 0 -29 -5
-27 -11 4 -12 5 -13 40 -4 17 4 28 15 30 28 2 17 10 22 33 22 27 0 30 -3 33
-37 3 -37 3 -38 -32 -38 -19 0 -37 6 -40 13 -5 10 -7 10 -12 0 -3 -7 -19 -13
-35 -13 -36 0 -60 39 -39 65 15 18 51 20 68 3z m167 -28 c0 -32 -2 -35 -29
-35 -16 0 -31 6 -34 14 -3 10 2 11 19 6 l24 -6 -24 19 c-29 23 -20 44 17 40
22 -3 26 -8 27 -38z m373 18 c3 -14 -3 -18 -28 -18 -28 0 -31 -2 -20 -15 10
-12 16 -13 27 -4 15 13 28 6 18 -10 -8 -15 -48 -14 -63 1 -13 13 -16 51 -5 62
14 14 68 1 71 -16z m7542 3 c0 -24 -18 -37 -32 -23 -8 8 -7 16 2 27 17 21 30
19 30 -4z m1961 -1 l24 -21 -32 16 c-32 15 -42 25 -24 25 5 0 19 -9 32 -20z
m94 -40 c-3 -5 -14 -10 -23 -10 -15 0 -15 2 -2 10 20 13 33 13 25 0z m-355
-50 c0 -5 -2 -10 -4 -10 -3 0 -8 5 -11 10 -3 6 -1 10 4 10 6 0 11 -4 11 -10z
m420 -56 c0 -2 -9 0 -20 6 -11 6 -20 13 -20 16 0 2 9 0 20 -6 11 -6 20 -13 20
-16z m-4454 -434 c4 -157 3 -282 -1 -277 -5 4 -10 78 -12 165 -1 86 -7 215
-13 286 -5 72 -9 164 -9 205 l1 76 14 -85 c7 -47 16 -213 20 -370z m2114 440
c0 -5 -4 -10 -10 -10 -5 0 -10 5 -10 10 0 6 5 10 10 10 6 0 10 -4 10 -10z
m2410 -10 c-33 -26 -52 -25 -21 0 13 11 28 20 35 20 6 0 0 -9 -14 -20z m-2487
-30 c-3 -11 -9 -20 -14 -20 -10 0 -12 33 -3 43 12 12 22 -3 17 -23z m2412 -58
c2 -29 -7 -35 -29 -19 -11 8 -15 19 -10 30 9 25 37 17 39 -11z m-1290 8 c-3
-5 -10 -10 -16 -10 -5 0 -9 5 -9 10 0 6 7 10 16 10 8 0 12 -4 9 -10z m-1141
-55 c9 -24 -4 -45 -29 -45 -22 0 -22 2 -12 30 12 32 31 39 41 15z m964 -11
c13 -5 11 -8 -13 -15 -28 -8 -50 4 -39 23 4 7 13 6 52 -8z m1342 -25 c0 -11
-4 -19 -9 -19 -10 0 -21 24 -21 47 0 13 3 13 15 3 8 -7 15 -21 15 -31z m79 14
c0 -25 -1 -26 -9 -8 -12 27 -12 35 0 35 6 0 10 -12 9 -27z m-374 7 c3 -5 2
-10 -4 -10 -5 0 -13 5 -16 10 -3 6 -2 10 4 10 5 0 13 -4 16 -10z m215 -10 c0
-5 -6 -10 -14 -10 -8 0 -18 5 -21 10 -3 6 3 10 14 10 12 0 21 -4 21 -10z
m-1274 -50 c38 0 64 -24 92 -84 3 -4 -6 -5 -19 0 -13 4 -35 9 -49 10 -14 2
-40 7 -59 10 -30 6 -33 5 -26 -15 8 -25 -2 -27 -33 -5 -29 20 -28 51 3 96 l25
37 26 -24 c15 -14 33 -25 40 -25z m-7451 11 c153 -71 153 -291 0 -362 -38 -17
-81 -19 -736 -19 l-696 0 -44 23 c-115 61 -142 213 -57 311 59 67 38 65 803
65 650 1 692 -1 730 -18z m8365 9 c0 -5 -2 -10 -4 -10 -3 0 -8 5 -11 10 -3 6
-1 10 4 10 6 0 11 -4 11 -10z m-355 -20 c3 -5 -3 -10 -14 -10 -12 0 -21 5 -21
10 0 6 6 10 14 10 8 0 18 -4 21 -10z m-36 -18 c5 -10 6 -23 2 -30 -11 -18 -46
11 -38 32 8 21 24 20 36 -2z m1098 2 c-3 -3 -12 -4 -19 -1 -8 3 -5 6 6 6 11 1
17 -2 13 -5z m-2033 -10 c17 -7 23 -54 7 -54 -14 0 -41 41 -35 52 6 10 8 10
28 2z m2066 -20 c0 -2 -7 -4 -15 -4 -8 0 -15 4 -15 10 0 5 7 7 15 4 8 -4 15
-8 15 -10z m-750 -14 c0 -5 -4 -10 -10 -10 -5 0 -10 5 -10 10 0 6 5 10 10 10
6 0 10 -4 10 -10z m-336 -56 c27 -23 36 -38 29 -45 -21 -21 -84 21 -90 62 -4
28 17 22 61 -17z m116 5 c0 -20 -15 -26 -25 -9 -9 15 3 43 15 35 5 -3 10 -15
10 -26z m933 20 c21 0 21 -1 3 -8 -25 -10 -68 -2 -60 11 3 5 13 7 21 4 8 -3
24 -6 36 -7z m-2403 -9 c0 -5 -2 -10 -4 -10 -3 0 -8 5 -11 10 -3 6 -1 10 4 10
6 0 11 -4 11 -10z m2214 -36 c9 -8 16 -13 16 -9 0 3 11 -2 25 -11 14 -9 25
-22 25 -29 0 -7 18 -28 40 -45 49 -39 51 -54 8 -45 -43 9 -62 25 -48 39 7 7
-7 26 -47 63 -32 29 -53 53 -46 53 6 0 19 -7 27 -16z m-764 -7 c0 -21 -12 -28
-27 -16 -19 16 -16 29 7 29 11 0 20 -6 20 -13z m1970 1 c19 -22 130 -231 125
-236 -6 -6 -192 15 -206 23 -14 9 -78 142 -71 149 3 3 14 6 24 6 14 0 18 8 18
35 l0 35 50 0 c27 0 54 -6 60 -12z m-3244 -35 c-8 -15 -15 -25 -16 -21 0 12
23 58 27 54 3 -2 -2 -17 -11 -33z m328 21 c10 -25 -1 -29 -14 -5 -6 12 -7 21
-1 21 5 0 12 -7 15 -16z m-182 -46 c-7 -7 -12 -8 -12 -2 0 14 12 26 19 19 2
-3 -1 -11 -7 -17z m30 -10 c-7 -7 -12 -8 -12 -2 0 14 12 26 19 19 2 -3 -1 -11
-7 -17z m-157 -18 c3 -5 -9 -22 -26 -37 -18 -15 -40 -41 -50 -58 l-19 -30 0
40 c0 66 9 86 35 79 13 -3 26 -1 29 5 9 14 23 14 31 1z m3062 -65 c12 -22 23
-43 23 -47 0 -10 -111 -10 -127 0 -6 4 -13 23 -15 42 -3 31 0 35 27 41 52 12
68 6 92 -36z m-2858 8 c-1 -26 -12 -48 -25 -50 -18 -3 -28 48 -12 58 21 14 38
10 37 -8z m746 -15 c29 -13 33 -28 8 -28 -12 0 -14 -3 -7 -10 11 -11 63 -3
108 15 16 7 18 5 13 -17 -6 -22 -2 -28 23 -38 30 -12 120 -101 120 -119 0 -5
3 -16 6 -25 4 -11 1 -16 -10 -16 -25 0 -19 -14 16 -40 28 -20 29 -24 15 -35
-15 -11 -15 -14 4 -31 12 -11 18 -26 15 -37 -2 -10 4 -39 15 -64 22 -51 23
-57 10 -49 -12 8 -19 -112 -8 -123 12 -12 5 -54 -9 -58 -6 -2 -14 6 -17 17 -5
19 -9 20 -27 10 -16 -9 -25 -8 -36 1 -12 10 -11 16 11 45 14 18 25 35 25 39 0
11 -40 -16 -89 -60 -57 -50 -86 -62 -107 -44 -18 15 -11 39 32 102 35 51 41
67 24 67 -5 0 -10 -4 -10 -8 0 -9 -59 -32 -81 -32 -8 0 -36 11 -64 25 -27 13
-56 25 -63 25 -20 0 -3 52 26 76 17 14 22 23 14 28 -19 11 -14 36 7 36 19 0
43 21 40 36 -1 5 -1 26 0 47 1 26 6 37 16 37 18 0 20 17 4 22 -9 3 -9 10 0 26
10 18 9 23 -4 28 -8 3 -15 12 -15 19 0 7 -11 16 -25 19 -21 5 -25 12 -25 44 0
20 -4 44 -9 52 -19 29 8 39 54 18z m88 -5 c-7 -2 -19 -2 -25 0 -7 3 -2 5 12 5
14 0 19 -2 13 -5z m1107 -8 c16 -19 0 -19 -26 0 -16 12 -16 14 -3 15 9 0 22
-7 29 -15z m-602 -59 c7 -17 7 -27 -1 -35 -14 -14 -30 -14 -21 0 4 8 -1 9 -15
4 -22 -7 -22 -6 -6 24 19 37 28 39 43 7z m642 -106 c0 -16 83 -90 101 -90 10
0 19 -4 19 -10 0 -16 -62 -11 -100 8 -19 9 -35 24 -35 32 0 9 -10 29 -23 44
-12 16 -19 32 -17 37 6 9 55 -10 55 -21z m1234 5 c21 -32 20 -35 -8 -35 -16 0
-26 7 -29 22 -12 42 12 51 37 13z m-3881 -137 c-12 -54 -25 -88 -34 -88 -6 0
-8 8 -5 18 3 9 8 31 12 47 8 37 13 45 24 45 4 0 6 -10 3 -22z m2642 -28 c3 -5
1 -10 -4 -10 -6 0 -11 5 -11 10 0 6 2 10 4 10 3 0 8 -4 11 -10z m-2863 -32
c-7 -7 -12 -8 -12 -2 0 14 12 26 19 19 2 -3 -1 -11 -7 -17z m2882 -4 c5 -14 4
-15 -9 -4 -17 14 -19 20 -6 20 5 0 12 -7 15 -16z m1470 -118 c25 -30 46 -59
46 -65 0 -6 -16 -11 -36 -11 -30 0 -37 4 -48 33 -20 48 -29 97 -18 97 5 0 30
-24 56 -54z m-4164 17 c0 -10 -7 -53 -15 -96 -8 -43 -15 -110 -15 -148 0 -38
-4 -69 -9 -69 -11 0 -31 87 -31 133 0 30 34 170 46 189 9 14 24 9 24 -9z m152
-90 c-22 -42 -59 -80 -68 -70 -8 7 16 46 54 88 33 38 38 31 14 -18z m2111 -56
c2 -38 1 -65 -3 -60 -7 7 -14 79 -11 122 2 32 9 2 14 -62z m75 -46 c-18 -27
-37 -50 -42 -50 -5 -1 -6 16 -2 37 3 20 6 47 6 60 0 17 6 22 24 22 14 0 28 6
33 13 6 8 9 5 11 -10 2 -12 -11 -44 -30 -72z m1883 59 c23 -13 24 -37 2 -62
-30 -33 -53 -17 -53 36 0 37 16 44 51 26z m-5047 -35 c-4 -8 -10 -15 -15 -15
-5 0 -9 7 -9 15 0 8 7 15 15 15 9 0 12 -6 9 -15z m2971 -55 c0 -27 -22 -39
-31 -16 -8 22 3 49 19 43 6 -2 12 -14 12 -27z m529 -39 c20 -30 29 -48 19 -40
-9 8 -24 19 -33 26 -86 66 -98 84 -51 74 21 -4 40 -22 65 -60z m-10796 -19
c67 -60 245 -173 360 -228 151 -73 287 -125 440 -169 142 -41 156 -48 142 -75
-13 -24 -13 -107 0 -115 15 -9 12 -68 -5 -110 l-16 -37 -73 7 c-58 6 -78 4
-97 -8 -13 -9 -43 -18 -67 -20 -40 -4 -72 -17 -41 -17 8 0 39 -17 70 -39 30
-21 73 -47 94 -57 21 -10 55 -35 76 -55 32 -31 39 -45 39 -77 0 -57 -17 -74
-59 -62 -54 15 -73 32 -151 137 -75 100 -152 170 -220 199 -65 27 -114 53
-170 90 -70 45 -186 154 -215 200 -10 16 -54 61 -99 99 -64 57 -88 85 -118
145 -34 67 -37 79 -34 143 3 57 7 73 27 92 23 21 25 22 52 6 15 -8 44 -31 65
-49z m7320 38 c10 -17 10 -20 -3 -20 -8 0 -15 2 -15 4 0 2 -3 11 -6 20 -9 23
9 20 24 -4z m3137 -11 c4 -5 18 -14 31 -19 14 -6 27 -17 31 -27 4 -9 15 -25
25 -35 10 -10 18 -24 18 -30 -1 -7 -10 -2 -21 11 -15 18 -23 21 -31 13 -20
-20 -37 -13 -54 21 -9 17 -21 35 -27 38 -12 8 -2 39 12 39 5 0 13 -5 16 -11z
m-105 -60 c0 -9 -6 -22 -14 -28 -11 -9 -16 -3 -25 33 -15 61 -15 63 14 36 14
-13 25 -31 25 -41z m204 2 c-6 -6 -24 19 -24 34 1 6 7 1 15 -9 8 -11 12 -22 9
-25z m131 -151 c8 -13 -5 -13 -25 0 -13 8 -13 10 2 10 9 0 20 -4 23 -10z m-58
-22 c16 -15 23 -17 23 -8 0 9 7 5 16 -9 12 -17 14 -25 5 -34 -9 -9 -14 -9 -19
-1 -4 6 -17 16 -28 22 -12 6 -24 21 -27 32 -7 26 1 25 30 -2z m-95 -5 c9 -10
19 -28 22 -40 4 -14 15 -23 26 -23 14 0 18 5 13 17 -7 17 -6 17 20 0 20 -13
47 -17 109 -17 l83 0 69 -297 c38 -164 71 -300 74 -303 2 -3 2 131 -2 298 l-6
302 165 0 165 0 0 -725 0 -725 -171 2 -172 3 -68 295 c-38 162 -71 300 -72
305 -2 6 -2 -128 1 -297 l4 -308 -146 0 -147 0 31 -44 c32 -48 35 -56 20 -56
-5 0 -24 21 -41 48 -18 26 -37 50 -41 53 -5 3 -10 143 -11 310 -2 299 -2 305
-24 333 -30 37 -29 49 2 44 20 -4 25 -1 25 16 0 27 -18 46 -42 46 -16 0 -18
-10 -18 -85 0 -76 2 -84 18 -79 16 5 16 5 0 -9 -16 -13 -18 -40 -18 -296 l0
-281 -185 0 c-102 0 -185 1 -185 3 -1 1 -3 175 -6 387 -5 329 -8 388 -21 403
-15 15 -15 17 0 17 22 0 23 46 2 66 -8 9 -15 19 -15 24 0 5 7 7 15 4 13 -5 15
11 15 112 1 117 6 382 9 417 1 15 17 17 186 17 l185 0 0 -219 0 -220 23 -3
c14 -2 23 -11 25 -27 4 -28 -16 -45 -35 -29 -10 8 -13 -5 -13 -68 l0 -79 30
-2 30 -2 0 339 c0 200 4 341 9 345 6 3 15 -3 21 -12 9 -15 10 -13 6 13 -7 46
9 58 36 27z m-2792 -74 c147 -68 210 -196 210 -426 l0 -113 -172 2 -173 3 -5
125 c-5 122 -5 125 -29 128 -13 2 -28 -2 -32 -10 -10 -15 -12 -808 -3 -832 8
-21 60 -21 68 0 3 9 6 51 6 95 0 72 -2 79 -20 79 -19 0 -20 7 -20 135 l0 135
190 0 190 0 0 -380 0 -380 -140 0 -140 0 -16 41 -17 40 -36 -35 c-20 -19 -49
-40 -64 -45 -47 -18 -151 -13 -212 10 -51 19 -62 20 -128 9 -198 -32 -293 -53
-304 -67 -7 -9 -19 -13 -27 -10 -9 4 -17 -1 -21 -12 -3 -10 -14 -26 -25 -36
-17 -15 -32 -16 -173 -6 -170 12 -188 16 -180 38 5 12 -1 14 -28 12 -53 -3
-233 1 -228 5 4 5 129 16 404 36 186 14 366 37 495 61 142 27 134 21 103 72
l-26 44 -151 7 c-83 4 -185 12 -226 17 -41 4 -131 13 -200 19 -250 22 -391 42
-397 57 -3 8 -3 16 0 19 3 3 75 -4 159 -15 271 -38 399 -50 563 -56 88 -3 177
-8 199 -11 l39 -5 -7 38 c-28 159 -37 681 -16 837 24 169 81 281 174 344 75
50 125 62 251 59 94 -2 118 -6 165 -28z m4146 16 c110 -33 178 -100 225 -225
17 -42 22 -86 27 -192 l5 -138 -176 0 -176 0 -3 121 c-2 99 -6 124 -19 132 -9
6 -24 7 -33 4 -15 -6 -16 -44 -14 -429 l3 -423 24 -3 c38 -6 51 22 51 110 0
71 -2 78 -20 78 -19 0 -20 7 -20 135 l0 135 190 0 190 0 0 -380 0 -380 -143 0
-144 0 -12 40 c-6 22 -14 40 -17 40 -4 0 -15 -12 -27 -26 -31 -40 -92 -64
-167 -64 -119 0 -215 68 -258 182 -38 101 -44 193 -40 574 4 298 8 369 22 419
46 162 121 247 261 291 56 18 211 17 271 -1z m-3145 -206 c13 -113 28 -202 33
-204 73 -19 94 -29 110 -51 l19 -26 -24 16 c-14 8 -44 22 -68 31 l-44 15 6
-57 c8 -68 61 -534 83 -713 8 -69 17 -155 21 -192 l6 -68 -187 0 -186 0 0 43
c0 24 -7 115 -15 203 -8 87 -24 278 -36 424 -11 146 -22 266 -23 267 -1 2 -28
-77 -59 -174 -31 -97 -55 -178 -53 -180 2 -3 20 0 40 5 34 10 36 9 36 -12 0
-23 -36 -433 -46 -523 l-5 -53 -180 0 -180 0 5 33 c3 17 40 327 81 687 41 360
78 672 81 693 l6 37 278 0 277 0 24 -201z m638 44 c21 -148 46 -326 57 -418 7
-52 14 -58 14 -11 0 36 21 189 61 447 10 69 19 128 19 132 0 4 96 7 214 7
l213 0 5 -37 c4 -41 4 -486 1 -1055 l-3 -358 -141 0 c-97 0 -138 -3 -134 -11
11 -16 -34 12 -74 48 -20 18 -37 29 -38 25 -1 -4 -4 -19 -7 -34 -6 -25 -10
-27 -67 -30 l-60 -3 29 -33 c17 -19 34 -34 39 -35 4 -1 7 -6 5 -11 -2 -5 5
-18 15 -29 12 -13 -19 -1 -84 33 -56 30 -99 58 -96 63 3 5 0 13 -6 17 -7 4
-29 121 -52 281 -22 150 -42 275 -44 278 -3 2 -5 -122 -5 -277 l0 -282 -155 0
c-154 0 -155 0 -156 23 -1 12 -1 171 0 352 0 182 -2 343 -5 358 -4 19 -22 38
-57 62 l-52 35 33 0 c18 0 42 -5 53 -10 23 -13 23 -14 24 100 0 47 1 185 3
308 l2 222 213 0 214 0 22 -157z m-6420 -286 c-2 -1 -12 -9 -21 -16 -15 -12
-18 -11 -18 3 0 10 8 16 22 16 12 0 19 -1 17 -3z m7051 -59 c0 -5 -4 -8 -10
-8 -5 0 -10 10 -10 23 0 18 2 19 10 7 5 -8 10 -18 10 -22z m-3882 -238 c12
-12 22 -22 22 -23 0 -1 7 -51 15 -112 18 -139 20 -335 3 -357 -7 -8 -23 -18
-35 -21 -19 -4 -22 0 -27 42 -3 25 -5 78 -5 116 -1 92 -8 178 -20 240 -26 134
-26 135 1 135 13 0 34 -9 46 -20z m-68 -296 c0 -8 -7 -14 -15 -14 -8 0 -15 9
-15 20 0 13 5 18 15 14 8 -4 15 -12 15 -20z m18 -49 c-3 -3 -9 2 -12 12 -6 14
-5 15 5 6 7 -7 10 -15 7 -18z m4357 6 c-3 -10 -6 -35 -7 -55 -1 -39 -18 -51
-18 -12 0 39 12 86 22 86 5 0 7 -8 3 -19z m-858 -507 c-3 -3 -12 -4 -19 -1 -8
3 -5 6 6 6 11 1 17 -2 13 -5z m-237 -60 c0 -2 -7 -4 -15 -4 -8 0 -15 4 -15 10
0 5 7 7 15 4 8 -4 15 -8 15 -10z m-3320 -94 c0 -5 -2 -10 -4 -10 -3 0 -8 5
-11 10 -3 6 -1 10 4 10 6 0 11 -4 11 -10z m2980 -86 c96 -9 182 -20 190 -24
16 -9 -18 -7 -295 16 -199 17 -311 37 -160 28 50 -3 169 -12 265 -20z"/>
<path d="M1371 6328 c0 -31 3 -37 8 -24 7 18 3 66 -5 66 -2 0 -4 -19 -3 -42z"/>
<path d="M1440 6328 c0 -23 3 -39 6 -36 9 10 12 78 3 78 -5 0 -9 -19 -9 -42z"/>
<path d="M1484 6362 c4 -7 3 -19 -3 -26 -8 -9 -6 -18 5 -32 15 -18 15 -18 5 2
-7 15 -7 24 1 32 9 9 9 15 -1 25 -11 10 -12 9 -7 -1z"/>
<path d="M1559 6338 c4 -28 6 -29 9 -9 2 13 0 27 -5 32 -6 6 -7 -3 -4 -23z"/>
<path d="M1580 6330 c0 -32 4 -40 18 -40 10 0 23 5 30 12 13 13 16 54 4 61 -4
3 -7 -9 -7 -26 0 -23 -5 -33 -19 -35 -16 -3 -18 1 -14 32 2 20 0 36 -4 36 -4
0 -8 -18 -8 -40z"/>
<path d="M1664 6330 c1 -28 5 -35 21 -35 16 0 20 7 21 40 l1 40 -4 -37 c-5
-48 -30 -51 -36 -5 -4 32 -4 32 -3 -3z"/>
<path d="M1737 6363 c-4 -3 -7 -19 -7 -35 0 -31 24 -48 42 -30 8 8 4 9 -12 5
-21 -6 -22 -3 -18 31 2 20 3 36 3 36 -1 0 -5 -3 -8 -7z"/>
<path d="M1820 6330 c0 -22 2 -40 4 -40 2 0 6 18 8 40 2 22 0 40 -4 40 -5 0
-8 -18 -8 -40z"/>
<path d="M2043 6355 l-33 -14 23 -25 22 -25 17 32 c28 52 25 56 -29 32z"/>
<path d="M1511 6335 c-1 -25 17 -45 39 -44 10 0 9 3 -5 8 -11 4 -23 19 -26 32
-6 21 -7 21 -8 4z"/>
<path d="M1898 6335 c28 -22 29 -39 1 -32 -16 4 -19 3 -11 -5 13 -13 45 -2 40
14 -2 6 -15 18 -29 26 l-24 15 23 -18z"/>
<path d="M8810 6320 c0 -5 5 -10 10 -10 6 0 10 5 10 10 0 6 -4 10 -10 10 -5 0
-10 -4 -10 -10z"/>
<path d="M9490 6340 c0 -5 7 -10 15 -10 8 0 15 5 15 10 0 6 -7 10 -15 10 -8 0
-15 -4 -15 -10z"/>
<path d="M9570 6340 c0 -5 5 -10 10 -10 6 0 10 5 10 10 0 6 -4 10 -10 10 -5 0
-10 -4 -10 -10z"/>
<path d="M9634 6335 c-7 -18 2 -45 15 -45 12 0 24 37 16 50 -9 15 -25 12 -31
-5z"/>
<path d="M9780 6319 c0 -38 24 -35 28 4 2 19 -1 27 -12 27 -11 0 -16 -10 -16
-31z"/>
<path d="M10540 6340 c0 -5 7 -10 15 -10 8 0 15 5 15 10 0 6 -7 10 -15 10 -8
0 -15 -4 -15 -10z"/>
<path d="M10540 6305 c0 -8 7 -15 15 -15 8 0 15 7 15 15 0 8 -7 15 -15 15 -8
0 -15 -7 -15 -15z"/>
<path d="M10612 6323 c4 -39 28 -42 28 -4 0 21 -5 31 -16 31 -11 0 -14 -8 -12
-27z"/>
<path d="M11300 6319 c0 -38 24 -35 28 4 2 19 -1 27 -12 27 -11 0 -16 -10 -16
-31z"/>
<path d="M795 5195 c0 -139 2 -155 17 -155 36 0 48 39 48 150 0 113 -12 153
-46 158 -19 3 -20 -2 -19 -153z"/>
<path d="M2340 4926 c0 -432 0 -435 46 -385 18 20 19 43 22 368 2 315 1 349
-15 381 -10 19 -26 36 -35 38 -17 3 -18 -21 -18 -402z"/>
<path d="M1275 3830 c-3 -5 1 -10 10 -10 9 0 13 5 10 10 -3 6 -8 10 -10 10 -2
0 -7 -4 -10 -10z"/>
<path d="M1370 3810 c0 -11 5 -20 10 -20 6 0 10 9 10 20 0 11 -4 20 -10 20 -5
0 -10 -9 -10 -20z"/>
<path d="M1510 3810 c0 -11 7 -20 15 -20 8 0 15 9 15 20 0 11 -7 20 -15 20 -8
0 -15 -9 -15 -20z"/>
<path d="M1608 3823 c7 -3 16 -2 19 1 4 3 -2 6 -13 5 -11 0 -14 -3 -6 -6z"/>
<path d="M1201 3804 c0 -11 3 -14 6 -6 3 7 2 16 -1 19 -3 4 -6 -2 -5 -13z"/>
<path d="M1425 3800 c-3 -5 -1 -10 4 -10 6 0 11 5 11 10 0 6 -2 10 -4 10 -3 0
-8 -4 -11 -10z"/>
<path d="M1610 3800 c0 -5 5 -10 10 -10 6 0 10 5 10 10 0 6 -4 10 -10 10 -5 0
-10 -4 -10 -10z"/>
<path d="M1330 3606 c0 -9 5 -16 10 -16 6 0 10 4 10 9 0 6 -4 13 -10 16 -5 3
-10 -1 -10 -9z"/>
<path d="M2218 3823 c7 -3 16 -2 19 1 4 3 -2 6 -13 5 -11 0 -14 -3 -6 -6z"/>
<path d="M2055 3800 c-3 -5 -1 -10 4 -10 6 0 11 5 11 10 0 6 -2 10 -4 10 -3 0
-8 -4 -11 -10z"/>
<path d="M2210 3800 c0 -12 17 -12 45 0 17 7 15 9 -12 9 -18 1 -33 -3 -33 -9z"/>
<path d="M622 3813 c4 -37 25 -40 25 -3 0 19 -5 30 -14 30 -10 0 -13 -9 -11
-27z"/>
<path d="M675 3830 c-3 -5 3 -10 15 -10 12 0 18 5 15 10 -3 6 -10 10 -15 10
-5 0 -12 -4 -15 -10z"/>
<path d="M862 3813 c4 -39 28 -42 28 -4 0 21 -5 31 -16 31 -11 0 -14 -8 -12
-27z"/>
<path d="M1010 3830 c-12 -8 -10 -10 8 -10 13 0 20 4 17 10 -7 12 -6 12 -25 0z"/>
<path d="M1755 3580 c-11 -18 10 -33 34 -25 21 6 30 25 12 25 -5 0 -16 3 -24
6 -8 3 -18 0 -22 -6z"/>
<path d="M1840 3570 c0 -15 5 -20 18 -18 9 2 17 10 17 18 0 8 -8 16 -17 18
-13 2 -18 -3 -18 -18z"/>
<path d="M2030 3570 c0 -15 5 -20 18 -18 9 2 17 10 17 18 0 8 -8 16 -17 18
-13 2 -18 -3 -18 -18z"/>
<path d="M1062 3573 c4 -39 28 -42 28 -4 0 21 -5 31 -16 31 -11 0 -14 -8 -12
-27z"/>
<path d="M675 3590 c-3 -5 1 -10 10 -10 9 0 13 5 10 10 -3 6 -8 10 -10 10 -2
0 -7 -4 -10 -10z"/>
<path d="M755 3590 c-3 -5 3 -10 15 -10 12 0 18 5 15 10 -3 6 -10 10 -15 10
-5 0 -12 -4 -15 -10z"/>
<path d="M760 3554 c0 -9 5 -14 12 -12 18 6 21 28 4 28 -9 0 -16 -7 -16 -16z"/>
<path d="M850 3590 c0 -5 5 -10 11 -10 5 0 7 5 4 10 -3 6 -8 10 -11 10 -2 0
-4 -4 -4 -10z"/>
<path d="M1205 3590 c-3 -5 3 -10 15 -10 12 0 18 5 15 10 -3 6 -10 10 -15 10
-5 0 -12 -4 -15 -10z"/>
<path d="M741 3074 c-29 -12 -32 -16 -20 -27 8 -6 19 -18 26 -26 9 -11 15 -7
27 24 23 53 22 54 -33 29z"/>
<path d="M910 3084 c0 -19 29 -80 30 -63 0 9 -7 30 -15 45 -8 16 -15 24 -15
18z"/>
<path d="M980 3080 c0 -5 5 -10 10 -10 6 0 10 5 10 10 0 6 -4 10 -10 10 -5 0
-10 -4 -10 -10z"/>
<path d="M1058 3050 c2 -22 6 -40 8 -40 2 0 4 18 4 40 0 22 -3 40 -8 40 -4 0
-6 -18 -4 -40z"/>
<path d="M1183 3050 c0 -25 2 -35 4 -22 2 12 11 22 18 22 7 0 16 -10 18 -22 2
-13 4 -3 4 22 1 25 -1 37 -4 28 -2 -10 -11 -18 -18 -18 -7 0 -16 8 -18 18 -3
9 -5 -3 -4 -28z"/>
<path d="M1340 3050 c0 -22 2 -40 4 -40 2 0 6 18 8 40 2 22 0 40 -4 40 -5 0
-8 -18 -8 -40z"/>
<path d="M1403 3050 c0 -25 2 -35 4 -22 2 12 2 32 0 45 -2 12 -4 2 -4 -23z"/>
<path d="M1434 3082 c4 -7 3 -19 -3 -26 -8 -9 -6 -18 5 -32 15 -18 15 -18 5 2
-7 15 -7 24 1 32 9 9 9 15 -1 25 -11 10 -12 9 -7 -1z"/>
<path d="M1487 3083 c-4 -3 -7 -11 -7 -17 0 -6 5 -5 12 2 6 6 9 14 7 17 -3 3
-9 2 -12 -2z"/>
<path d="M1562 3058 c-1 -20 -8 -39 -14 -41 -7 -3 1 -6 17 -6 17 0 25 3 18 7
-6 4 -13 23 -16 42 l-4 35 -1 -37z"/>
<path d="M1612 3053 c-2 -41 -1 -43 26 -42 22 1 23 2 5 6 -17 3 -23 13 -26 41
l-4 37 -1 -42z"/>
<path d="M1680 3050 c0 -39 1 -40 33 -39 30 2 30 2 5 6 -34 5 -37 30 -5 36 22
4 22 4 -2 6 -16 1 -21 5 -17 16 3 8 1 15 -4 15 -6 0 -10 -18 -10 -40z"/>
<path d="M1763 3050 c0 -25 2 -35 4 -22 2 12 2 32 0 45 -2 12 -4 2 -4 -23z"/>
<path d="M1794 3082 c4 -7 3 -19 -3 -26 -8 -9 -6 -18 5 -32 15 -18 15 -18 5 2
-7 15 -7 24 1 32 9 9 9 15 -1 25 -11 10 -12 9 -7 -1z"/>
<path d="M891 3053 c-1 -17 4 -35 9 -38 12 -7 12 22 0 50 -7 17 -9 15 -9 -12z"/>
<path d="M1103 3051 c2 -29 31 -51 47 -35 8 8 4 10 -12 10 -15 -1 -24 7 -29
24 -8 25 -8 25 -6 1z"/>
<path d="M967 3039 c-4 -13 -4 -25 -2 -28 3 -2 5 1 5 7 0 7 9 12 20 12 11 0
20 -5 20 -12 0 -6 2 -9 5 -7 2 3 2 15 -2 28 -4 17 -8 19 -14 9 -8 -11 -10 -11
-18 0 -6 10 -10 8 -14 -9z"/>
<path d="M1501 3051 c-1 -7 -7 -11 -16 -7 -8 3 -15 1 -15 -4 0 -6 9 -10 20
-10 11 0 20 -5 20 -12 0 -6 2 -9 5 -6 3 3 1 16 -4 29 -5 13 -10 18 -10 10z"/>
<path d="M9863 957 c-9 -53 -10 -84 -3 -97 13 -24 13 -87 0 -95 -5 -3 -10 2
-10 11 0 40 -14 -1 -26 -78 -17 -106 -17 -118 1 -118 8 0 19 -9 26 -21 24 -45
29 3 27 237 -3 231 -3 236 -15 161z"/>
</g>
</svg>
