<?xml version="1.0" standalone="no"?>
<!DOCTYPE svg PUBLIC "-//W3C//DTD SVG 20010904//EN"
 "http://www.w3.org/TR/2001/REC-SVG-20010904/DTD/svg10.dtd">
<svg version="1.0" xmlns="http://www.w3.org/2000/svg"
 width="1262.000000pt" height="686.000000pt" viewBox="0 0 1262.000000 686.000000"
 preserveAspectRatio="xMidYMid meet">

<g transform="translate(0.000000,686.000000) scale(0.100000,-0.100000)"
fill="#000000" stroke="none">
<path d="M0 6600 l0 -260 6310 0 6310 0 0 260 0 260 -6310 0 -6310 0 0 -260z
m11205 70 c6 -18 15 -20 77 -20 l71 0 -7 -42 c-4 -22 -9 -45 -12 -50 -3 -4
-32 -8 -64 -8 l-59 0 -10 38 c-6 20 -11 45 -11 55 0 11 -9 21 -20 24 -28 7
-25 23 4 23 16 0 27 -7 31 -20z m-266 -27 c12 -23 -4 -53 -29 -53 -25 0 -41
29 -29 52 12 23 45 23 58 1z m-9499 -53 l0 -60 -80 0 -80 0 0 60 0 60 80 0 80
0 0 -60z m1775 37 c4 -13 5 -30 3 -38 -2 -8 3 -13 11 -11 52 11 88 -41 37 -54
-54 -13 -115 48 -102 102 8 32 43 33 51 1z m57 6 c22 -20 24 -37 3 -29 -8 3
-15 0 -15 -6 0 -7 -5 -6 -15 2 -17 14 -21 35 -5 25 6 -3 7 1 4 9 -8 21 5 20
28 -1z m6987 3 c20 -12 12 -41 -19 -71 l-30 -29 -30 29 c-34 32 -38 59 -13 74
18 10 73 8 92 -3z m-8589 -5 c0 -5 9 -11 20 -14 15 -4 20 -14 20 -41 0 -20 -4
-36 -10 -36 -5 0 -10 16 -10 35 0 19 -4 35 -10 35 -5 0 -10 -16 -10 -35 0 -24
-5 -35 -15 -35 -11 0 -15 12 -15 50 0 38 4 50 15 50 8 0 15 -4 15 -9z m70 0
c0 -5 10 -11 23 -13 18 -2 23 -10 25 -40 2 -21 -1 -38 -7 -38 -5 0 -11 15 -13
33 -2 17 -7 32 -13 32 -5 0 -11 -15 -13 -32 -5 -52 -22 -38 -22 17 0 28 5 50
10 50 6 0 10 -4 10 -9z m460 -41 c0 -27 -4 -50 -10 -50 -5 0 -10 23 -10 50 0
28 5 50 10 50 6 0 10 -22 10 -50z m121 40 c22 -12 26 -59 7 -78 -9 -9 -9 -12
1 -12 11 0 11 -3 1 -15 -16 -20 -70 -19 -98 1 -46 32 -14 114 44 114 14 0 34
-5 45 -10z m359 -40 c0 -27 -4 -50 -10 -50 -5 0 -10 23 -10 50 0 28 5 50 10
50 6 0 10 -22 10 -50z m740 31 c-5 -11 -10 -32 -10 -46 0 -14 5 -35 10 -46 7
-12 7 -19 1 -19 -15 0 -31 34 -31 65 0 31 16 65 31 65 6 0 6 -7 -1 -19z m70
-31 c0 -27 -4 -50 -10 -50 -5 0 -10 16 -10 35 0 26 -3 33 -15 29 -20 -8 -19 6
3 22 28 22 32 17 32 -36z m88 27 c2 -11 -6 -29 -18 -42 l-22 -23 24 -5 c15 -3
10 -5 -15 -6 -40 -1 -42 11 -5 37 10 7 18 22 18 33 0 20 -15 26 -25 9 -3 -5
-11 -10 -17 -10 -6 0 -6 6 2 15 17 21 54 15 58 -8z m77 -27 c0 -41 -2 -45 -26
-48 -17 -2 -29 3 -32 12 -7 18 8 22 18 6 10 -17 25 -11 25 10 0 11 -5 20 -11
20 -8 0 -8 4 0 14 8 9 8 16 2 20 -5 4 -12 2 -16 -4 -3 -5 -11 -10 -17 -10 -6
0 -6 6 2 15 7 9 23 15 34 13 18 -3 21 -10 21 -48z m77 10 c4 -42 -9 -77 -19
-52 -2 6 -13 12 -24 12 -24 0 -24 7 1 48 26 43 37 40 42 -8z m61 33 c-28 -5
-30 -19 -3 -26 41 -11 32 -67 -11 -67 -19 0 -35 17 -24 28 3 3 10 0 15 -8 7
-11 12 -12 21 -3 18 18 3 46 -21 38 -15 -5 -20 -2 -20 13 0 25 9 32 39 31 24
-2 24 -2 4 -6z m67 -32 c0 -10 5 -7 13 9 14 28 43 38 60 21 9 -9 5 -11 -12 -9
-31 4 -39 -19 -9 -24 15 -2 24 -11 26 -26 4 -27 -23 -40 -49 -24 -24 15 -29
15 -29 -2 0 -7 -7 -19 -16 -27 -13 -11 -14 -9 -8 17 4 16 7 33 7 39 0 6 -3 23
-7 39 -6 26 -5 28 8 17 9 -8 16 -21 16 -30z m160 32 c0 -5 -7 -17 -15 -27 -8
-11 -15 -28 -15 -37 0 -18 -17 -35 -26 -26 -3 3 2 22 10 42 20 46 20 43 -6 48
-14 3 -9 5 15 6 20 0 37 -2 37 -6z m65 -18 c1 -11 4 -25 8 -32 13 -21 -4 -44
-32 -41 -22 3 -26 8 -28 38 -2 50 4 62 29 58 15 -2 23 -10 23 -23z m83 9 c8
-14 10 -14 21 0 34 41 86 -8 63 -59 -14 -30 -46 -33 -65 -5 l-14 21 -6 -21
c-3 -14 -13 -20 -31 -20 -14 0 -26 5 -26 10 0 6 7 10 16 8 10 -2 19 3 21 10 3
7 -4 12 -15 12 -11 0 -23 7 -26 16 -14 35 43 61 62 28z m4025 9 c-41 -5 -45
-32 -5 -34 l27 -2 -27 -4 c-42 -6 -38 -40 5 -46 28 -3 26 -4 -10 -5 l-43 -2 0
50 0 50 43 -2 c36 -1 38 -2 10 -5z m217 -43 c0 -27 -4 -50 -10 -50 -5 0 -10
23 -10 50 0 28 5 50 10 50 6 0 10 -22 10 -50z m130 40 c0 -5 9 -10 19 -10 21
0 31 -19 31 -56 0 -15 -6 -24 -15 -24 -11 0 -15 11 -15 36 0 21 -4 33 -10 29
-5 -3 -10 -19 -10 -36 0 -16 -4 -29 -10 -29 -5 0 -10 23 -10 50 0 28 5 50 10
50 6 0 10 -4 10 -10z m442 -32 c2 -31 8 -44 21 -46 14 -3 17 4 17 42 0 26 5
46 11 46 6 0 9 -19 7 -47 -3 -48 -3 -48 -38 -48 -35 0 -35 0 -38 48 -2 26 1
47 7 47 5 0 11 -19 13 -42z m148 27 c8 -9 9 -15 2 -15 -6 0 -14 5 -17 10 -9
15 -35 12 -35 -4 0 -8 10 -16 21 -18 31 -4 49 -35 29 -48 -22 -14 -56 -12 -70
5 -14 17 0 21 17 4 13 -13 43 -5 43 11 0 5 -6 10 -13 10 -24 0 -51 26 -44 44
8 20 50 21 67 1z m98 3 c7 -7 12 -24 12 -38 0 -35 -17 -50 -57 -50 -33 0 -33
0 -33 50 0 50 0 50 33 50 18 0 38 -5 45 -12z m407 -20 l7 -33 9 33 c5 17 14
32 20 32 5 0 15 -15 21 -32 l12 -33 8 33 c7 26 13 32 36 31 25 0 26 -1 5 -9
-15 -6 -23 -21 -28 -49 -8 -48 -30 -54 -40 -11 -7 32 -25 32 -25 0 0 -18 -17
-36 -26 -28 -2 3 -10 26 -18 51 -11 38 -11 47 -1 47 7 0 16 -15 20 -32z m235
23 c0 -5 9 -11 20 -14 15 -4 20 -14 20 -41 0 -20 -4 -36 -10 -36 -5 0 -10 16
-10 35 0 19 -4 35 -10 35 -5 0 -10 -16 -10 -35 0 -24 -5 -35 -15 -35 -8 0 -15
6 -15 13 0 9 -2 9 -8 0 -4 -6 -26 -12 -50 -11 -42 0 -42 1 -42 38 0 37 1 38
40 38 22 0 43 -4 46 -10 4 -6 -1 -8 -15 -3 -29 9 -26 -7 4 -22 24 -11 25 -10
25 23 0 24 5 34 15 34 8 0 15 -4 15 -9z m70 -41 c0 -27 -4 -50 -10 -50 -5 0
-10 23 -10 50 0 28 5 50 10 50 6 0 10 -22 10 -50z m37 44 c-3 -3 -12 -4 -19
-1 -8 3 -5 6 6 6 11 1 17 -2 13 -5z m104 -1 c5 -58 2 -93 -7 -93 -11 0 -23 68
-16 89 4 12 22 15 23 4z m399 -38 c0 -41 2 -45 24 -45 21 0 25 6 28 33 2 25 8
33 27 35 15 2 30 -3 37 -12 10 -15 12 -15 18 -1 3 9 18 15 36 15 27 0 30 -3
30 -29 0 -51 -17 -81 -45 -81 -14 0 -25 5 -25 11 0 6 9 8 20 4 11 -4 20 -2 20
4 0 6 -7 11 -15 11 -9 0 -18 7 -22 16 -5 14 -7 14 -15 1 -6 -11 -26 -15 -73
-16 l-65 0 0 49 c0 28 5 50 10 50 6 0 10 -20 10 -45z m-8850 -16 c0 -21 -4
-39 -10 -39 -5 0 -10 16 -10 36 0 21 -4 33 -10 29 -5 -3 -10 -19 -10 -36 0
-16 -4 -29 -10 -29 -5 0 -10 16 -10 35 0 19 -4 35 -10 35 -5 0 -10 -16 -10
-35 0 -19 -4 -35 -10 -35 -5 0 -10 18 -10 39 l0 40 50 -1 50 0 0 -39z m300 29
c0 -5 -9 -6 -20 -3 -31 10 -24 -9 8 -21 19 -7 35 -7 50 -1 31 14 28 29 -4 21
-19 -5 -25 -4 -20 5 4 6 20 11 37 11 27 0 29 -3 31 -37 l1 -38 4 38 c4 36 6
38 36 35 29 -3 32 -6 35 -40 2 -22 -1 -38 -7 -38 -6 0 -11 16 -11 35 0 19 -4
35 -10 35 -5 0 -10 -15 -10 -34 l0 -35 -125 1 c-114 0 -125 2 -125 18 0 10 9
22 20 25 11 3 20 11 20 16 0 6 -9 7 -21 4 -13 -5 -19 -3 -15 3 8 13 126 13
126 0z m192 -20 c2 -18 8 -33 13 -33 6 0 11 15 13 33 5 46 22 40 22 -9 0 -39
-1 -40 -32 -37 -30 3 -33 6 -36 41 -2 20 1 37 7 37 5 0 11 -15 13 -32z m296
-20 c-3 -47 -6 -53 -27 -56 -13 -2 -28 2 -35 9 -8 9 -7 10 7 5 11 -3 24 -3 30
1 7 4 2 9 -13 13 -16 4 -26 14 -28 29 -6 37 5 51 38 51 l31 0 -3 -52z m120 10
c2 -22 -1 -38 -7 -38 -6 0 -11 13 -11 29 0 17 -4 32 -9 35 -10 7 -21 -17 -21
-45 0 -10 -4 -19 -10 -19 -5 0 -10 16 -10 36 0 21 -4 33 -10 29 -5 -3 -10 -19
-10 -36 0 -16 -4 -29 -10 -29 -5 0 -10 18 -10 41 l0 40 53 -3 52 -3 3 -37z
m80 0 c3 -37 3 -38 -32 -38 -29 0 -36 4 -36 19 0 11 9 23 20 26 11 3 20 11 20
16 0 6 -9 7 -21 4 -15 -5 -19 -4 -14 5 4 6 19 10 33 8 23 -3 27 -8 30 -40z
m32 2 c0 -22 -4 -40 -10 -40 -5 0 -10 18 -10 40 0 22 5 40 10 40 6 0 10 -18
10 -40z m135 30 c4 -6 13 -5 25 3 16 9 24 9 40 -1 13 -8 20 -8 20 -2 0 7 20
10 53 8 l52 -3 3 -37 c2 -22 -1 -38 -7 -38 -6 0 -11 16 -11 35 0 19 -4 35 -10
35 -5 0 -10 -16 -10 -35 0 -19 -4 -35 -10 -35 -5 0 -10 13 -10 29 0 17 -4 33
-10 36 -6 4 -10 -8 -10 -29 0 -25 -4 -36 -15 -36 -8 0 -15 5 -15 10 0 6 -8 5
-20 -2 -15 -10 -25 -10 -37 -2 -13 8 -23 8 -35 0 -35 -22 -74 27 -48 59 14 17
46 20 55 5z m5510 -7 c6 -17 7 -17 16 0 6 10 22 17 39 17 26 0 30 -4 30 -29 0
-51 -17 -81 -45 -81 -14 0 -25 5 -25 11 0 6 9 8 20 4 11 -4 20 -2 20 4 0 6 -7
11 -15 11 -7 0 -19 8 -24 18 -10 16 -10 16 -11 0 0 -10 -7 -18 -15 -18 -11 0
-15 11 -15 36 0 21 -4 33 -10 29 -5 -3 -10 -19 -10 -36 0 -16 -4 -29 -10 -29
-5 0 -10 18 -10 40 0 37 2 40 29 40 18 0 31 -6 36 -17z m145 -23 c0 -22 -4
-40 -10 -40 -5 0 -10 18 -10 40 0 22 5 40 10 40 6 0 10 -18 10 -40z m66 29 c4
-8 0 -9 -15 -4 -12 3 -21 2 -21 -4 0 -5 9 -13 21 -16 29 -10 20 -39 -14 -43
-15 -2 -27 2 -27 8 0 7 8 9 20 5 11 -3 20 -2 20 4 0 5 -9 13 -20 16 -30 9 -26
45 4 45 14 0 28 -5 32 -11z m1530 -1 c4 -6 -1 -8 -15 -3 -12 4 -21 2 -21 -4 0
-6 6 -11 14 -11 19 0 36 -23 28 -37 -4 -7 -26 -12 -50 -11 -42 0 -42 1 -42 38
0 37 1 38 40 38 22 0 43 -4 46 -10z m674 -28 c0 -22 -4 -40 -10 -40 -5 0 -10
18 -10 40 0 22 5 40 10 40 6 0 10 -18 10 -40z m74 24 c11 -29 7 -64 -9 -64
-11 0 -15 11 -15 36 0 21 -4 33 -10 29 -5 -3 -10 -19 -10 -36 0 -16 -4 -29
-10 -29 -5 0 -10 18 -10 40 0 37 2 40 29 40 17 0 31 -6 35 -16z m-2049 -6 c3
-3 -1 -11 -10 -18 -12 -10 -18 -10 -30 0 -8 7 -13 16 -10 19 5 9 42 8 50 -1z
m660 0 c3 -3 -1 -11 -10 -18 -12 -10 -18 -10 -30 0 -8 7 -13 16 -10 19 5 9 42
8 50 -1z m1571 -32 c3 -8 4 -23 1 -33 -4 -16 -6 -15 -12 5 -6 18 -15 22 -45
22 -30 0 -39 -4 -45 -22 -6 -20 -8 -21 -12 -5 -9 36 4 47 57 47 35 0 52 -4 56
-14z m274 -51 c0 -8 -7 -15 -15 -15 -8 0 -15 7 -15 15 0 8 7 15 15 15 8 0 15
-7 15 -15z m90 0 c0 -8 -7 -15 -15 -15 -8 0 -15 7 -15 15 0 8 7 15 15 15 8 0
15 -7 15 -15z"/>
<path d="M11218 6600 c4 -29 6 -30 53 -30 36 0 49 4 49 14 0 8 3 21 6 30 5 14
-3 16 -53 16 l-60 0 5 -30z"/>
<path d="M10897 6634 c-13 -13 -7 -24 14 -24 11 0 19 5 17 12 -5 14 -22 21
-31 12z"/>
<path d="M1300 6632 c0 -4 14 -16 30 -25 29 -17 31 -17 60 0 17 9 30 21 30 25
0 4 -27 8 -60 8 -33 0 -60 -4 -60 -8z"/>
<path d="M1292 6578 l3 -33 65 0 65 0 3 33 c4 38 0 39 -39 11 l-29 -20 -29 20
c-39 28 -43 27 -39 -11z"/>
<path d="M3180 6609 c0 -11 5 -17 10 -14 6 3 10 13 10 21 0 8 -4 14 -10 14 -5
0 -10 -9 -10 -21z"/>
<path d="M3235 6550 c-3 -5 3 -10 14 -10 12 0 21 5 21 10 0 6 -6 10 -14 10 -8
0 -18 -4 -21 -10z"/>
<path d="M10163 6614 c-3 -10 4 -26 21 -42 l26 -27 26 27 c37 36 27 58 -26 58
-28 0 -43 -5 -47 -16z"/>
<path d="M2246 6614 c-9 -8 -16 -23 -15 -32 0 -12 3 -11 9 6 7 16 18 22 41 22
30 0 31 -2 25 -30 -3 -19 -2 -29 4 -25 14 9 12 49 -2 63 -17 17 -44 15 -62 -4z"/>
<path d="M2267 6593 c-4 -3 -7 -16 -7 -27 0 -19 1 -19 17 -3 12 11 14 20 7 27
-6 6 -13 7 -17 3z"/>
<path d="M2232 6550 c6 -20 51 -35 74 -25 16 7 13 10 -16 13 -19 2 -41 9 -49
15 -11 10 -13 9 -9 -3z"/>
<path d="M3696 6591 c-4 -7 -5 -15 -2 -18 9 -9 19 4 14 18 -4 11 -6 11 -12 0z"/>
<path d="M3895 6580 c-7 -12 2 -30 16 -30 5 0 9 9 9 20 0 21 -15 27 -25 10z"/>
<path d="M4050 6615 c0 -8 5 -15 10 -15 6 0 10 7 10 15 0 8 -4 15 -10 15 -5 0
-10 -7 -10 -15z"/>
<path d="M4050 6570 c0 -13 5 -20 13 -17 6 2 12 10 12 17 0 7 -6 15 -12 18 -8
2 -13 -5 -13 -18z"/>
<path d="M4125 6620 c-7 -12 2 -30 16 -30 5 0 9 9 9 20 0 21 -15 27 -25 10z"/>
<path d="M4205 6610 c-7 -22 2 -60 15 -60 11 0 19 36 13 60 -3 11 -9 20 -13
20 -5 0 -12 -9 -15 -20z"/>
<path d="M9170 6590 c0 -37 2 -41 23 -38 18 2 22 9 22 38 0 29 -4 36 -22 38
-21 3 -23 -1 -23 -38z"/>
<path d="M9770 6576 c0 -17 30 -30 42 -18 5 5 -3 14 -17 20 -20 9 -25 9 -25
-2z"/>
<path d="M10554 6596 c-8 -21 3 -49 16 -41 5 3 10 15 10 25 0 25 -18 36 -26
16z"/>
<path d="M10626 6595 c-6 -18 2 -45 15 -45 5 0 9 14 9 30 0 32 -14 40 -24 15z"/>
<path d="M1870 6576 c0 -17 30 -30 42 -18 5 5 -3 14 -17 20 -20 9 -25 9 -25
-2z"/>
<path d="M1826 6571 c-4 -7 -5 -15 -2 -18 9 -9 19 4 14 18 -4 11 -6 11 -12 0z"/>
<path d="M1970 6570 c-8 -5 -11 -12 -7 -16 4 -4 13 -2 19 4 15 15 7 24 -12 12z"/>
<path d="M2374 6596 c-8 -21 3 -49 16 -41 5 3 10 15 10 25 0 25 -18 36 -26 16z"/>
<path d="M2576 6571 c-4 -7 -5 -15 -2 -18 9 -9 19 4 14 18 -4 11 -6 11 -12 0z"/>
<path d="M2747 6603 c-10 -9 -8 -41 2 -47 16 -10 41 5 41 24 0 10 -7 21 -16
24 -19 7 -19 7 -27 -1z"/>
<path d="M2814 6595 c-7 -18 2 -45 15 -45 5 0 11 7 15 15 7 18 -2 45 -15 45
-5 0 -12 -7 -15 -15z"/>
<path d="M8326 6595 c-6 -18 2 -45 15 -45 5 0 9 14 9 30 0 32 -14 40 -24 15z"/>
<path d="M9980 6576 c0 -17 30 -30 42 -18 5 5 -3 14 -17 20 -20 9 -25 9 -25
-2z"/>
<path d="M10950 6040 l0 -200 184 0 c154 0 187 3 200 16 13 13 16 44 16 184 0
140 -3 171 -16 184 -13 13 -46 16 -200 16 l-184 0 0 -200z m235 58 c24 -19 27
-26 22 -63 -4 -26 -2 -47 6 -55 10 -12 9 -12 -4 -2 -10 7 -29 10 -47 6 -83
-17 -126 95 -49 126 33 13 42 12 72 -12z"/>
<path d="M11108 6089 c-28 -16 -23 -65 7 -85 51 -33 104 21 71 71 -17 26 -48
32 -78 14z"/>
<path d="M1300 6045 l0 -75 50 0 c38 0 50 4 50 15 0 11 -11 15 -40 15 -29 0
-40 4 -40 15 0 10 11 15 35 15 24 0 35 5 35 15 0 10 -11 15 -35 15 -24 0 -35
5 -35 15 0 11 11 15 40 15 29 0 40 4 40 15 0 11 -12 15 -50 15 l-50 0 0 -75z"/>
<path d="M1430 6045 c0 -60 3 -75 15 -75 12 0 15 15 15 75 0 60 -3 75 -15 75
-12 0 -15 -15 -15 -75z"/>
<path d="M1490 6110 c0 -5 5 -10 10 -10 6 0 10 5 10 10 0 6 -4 10 -10 10 -5 0
-10 -4 -10 -10z"/>
<path d="M1548 6100 c-11 -19 -14 -38 -9 -75 5 -42 10 -51 29 -53 12 -2 22 1
22 7 0 6 -4 11 -10 11 -15 0 -12 67 3 73 9 4 9 8 1 14 -7 4 -13 17 -16 28 -3
19 -5 18 -20 -5z"/>
<path d="M1770 6045 c0 -60 3 -75 15 -75 11 0 15 13 16 53 1 53 8 46 23 -25
11 -47 33 -34 42 25 l8 52 9 -52 c13 -77 27 -65 27 22 0 68 -2 75 -20 75 -14
0 -22 -11 -29 -37 -6 -21 -11 -45 -11 -53 0 -27 -18 10 -25 52 -6 32 -11 38
-31 38 -23 0 -24 -2 -24 -75z"/>
<path d="M2140 6103 c-11 -17 -24 -23 -52 -23 l-38 0 0 -55 c0 -42 3 -55 15
-55 11 0 15 12 15 45 0 33 4 45 15 45 8 0 18 1 23 3 4 1 9 -18 12 -43 4 -37 9
-46 28 -48 12 -2 22 1 22 7 0 6 -4 11 -10 11 -15 0 -12 67 3 73 9 4 9 8 1 14
-7 4 -14 17 -16 28 -4 19 -4 19 -18 -2z"/>
<path d="M2353 6040 c0 -30 2 -43 4 -27 4 22 9 27 33 27 24 0 29 -5 33 -27 2
-16 4 -3 4 27 0 30 -2 45 -4 33 -3 -18 -11 -23 -33 -23 -22 0 -30 5 -33 23 -2
12 -4 -3 -4 -33z"/>
<path d="M3131 6038 c1 -29 4 -43 6 -31 3 15 13 23 31 25 21 2 27 8 27 28 0
21 -5 26 -32 28 l-33 3 1 -53z m57 25 c-2 -10 -13 -19 -26 -21 -17 -3 -22 2
-22 17 0 16 6 21 26 21 19 0 25 -5 22 -17z"/>
<path d="M3681 6038 c1 -29 4 -43 6 -30 3 15 11 22 27 22 13 0 29 7 36 15 18
21 -4 45 -41 45 -28 0 -29 -1 -28 -52z m64 22 c0 -9 -11 -16 -27 -18 -23 -3
-28 1 -28 18 0 17 5 21 28 18 16 -2 27 -9 27 -18z"/>
<path d="M3950 6081 c0 -5 -10 -11 -22 -13 -19 -2 -23 -9 -23 -38 0 -31 3 -35
28 -36 26 -1 27 1 27 47 0 27 -2 49 -5 49 -3 0 -5 -4 -5 -9z m-5 -51 c0 -16
-6 -26 -17 -28 -14 -3 -18 3 -18 28 0 25 4 31 18 28 11 -2 17 -12 17 -28z"/>
<path d="M4128 6080 c-5 -17 3 -90 11 -90 3 0 5 21 4 46 -1 46 -8 65 -15 44z"/>
<path d="M4400 6040 c0 -48 1 -50 29 -50 34 0 42 16 34 64 -5 32 -9 36 -34 36
-28 0 -29 -2 -29 -50z m50 25 c0 -8 -9 -15 -20 -15 -11 0 -20 7 -20 15 0 8 9
15 20 15 11 0 20 -7 20 -15z m5 -45 c0 -8 -10 -16 -22 -18 -18 -3 -23 2 -23
18 0 16 5 21 23 18 12 -2 22 -10 22 -18z"/>
<path d="M4493 6040 c0 -30 2 -43 4 -27 2 15 2 39 0 55 -2 15 -4 2 -4 -28z"/>
<path d="M4843 6074 c-7 -18 20 -44 44 -44 7 0 13 -5 13 -10 0 -18 -32 -24
-54 -10 -20 11 -20 11 -4 -5 18 -20 68 -14 68 8 0 19 -21 37 -42 37 -10 0 -18
7 -18 15 0 18 31 20 50 3 12 -11 12 -10 1 5 -17 22 -50 22 -58 1z"/>
<path d="M4932 6040 c1 -45 2 -49 7 -21 8 48 31 53 31 7 0 -20 5 -36 10 -36
11 0 13 39 4 64 -3 9 -14 16 -24 16 -10 0 -21 6 -23 13 -3 6 -5 -13 -5 -43z"/>
<path d="M5332 6078 c-17 -17 -15 -63 3 -78 16 -13 65 -6 65 10 0 6 -8 5 -19
-1 -28 -18 -51 -4 -51 31 0 35 23 49 51 31 11 -6 19 -7 19 -2 0 20 -50 27 -68
9z"/>
<path d="M5578 6080 c-5 -17 3 -90 11 -90 3 0 5 21 4 46 -1 46 -8 65 -15 44z"/>
<path d="M5768 6080 c-5 -17 3 -90 11 -90 3 0 5 21 4 46 -1 46 -8 65 -15 44z"/>
<path d="M5970 6040 c0 -45 2 -50 23 -50 42 0 63 33 47 75 -7 19 -17 25 -40
25 -29 0 -30 -1 -30 -50z m60 20 c14 -26 -3 -60 -30 -60 -17 0 -20 7 -20 40 0
33 3 40 20 40 10 0 24 -9 30 -20z"/>
<path d="M6210 6040 c0 -27 5 -50 10 -50 6 0 10 16 10 35 0 50 27 48 33 -2 l4
-38 1 38 c2 31 -2 40 -18 44 -11 3 -20 9 -20 14 0 5 -4 9 -10 9 -5 0 -10 -22
-10 -50z"/>
<path d="M6290 6044 c0 -49 1 -51 28 -50 24 1 27 5 27 36 0 27 -5 36 -20 39
-11 2 -23 8 -27 15 -4 6 -8 -12 -8 -40z m45 -14 c0 -13 -6 -25 -12 -27 -16 -6
-27 21 -19 43 9 23 31 11 31 -16z"/>
<path d="M6620 6081 c0 -5 -10 -11 -22 -13 -19 -2 -23 -9 -23 -38 0 -31 3 -35
28 -36 26 -1 27 1 27 47 0 27 -2 49 -5 49 -3 0 -5 -4 -5 -9z m-5 -51 c0 -16
-6 -26 -17 -28 -14 -3 -18 3 -18 28 0 25 4 31 18 28 11 -2 17 -12 17 -28z"/>
<path d="M1490 6025 c0 -30 5 -55 10 -55 6 0 10 25 10 55 0 30 -4 55 -10 55
-5 0 -10 -25 -10 -55z"/>
<path d="M1612 6068 c-7 -7 -12 -26 -12 -43 0 -17 5 -36 12 -43 17 -17 53 -15
69 4 12 15 10 16 -17 10 -24 -5 -33 -3 -37 8 -5 13 1 16 28 16 37 0 42 9 25
41 -12 21 -50 25 -68 7z m48 -18 c0 -5 -9 -10 -21 -10 -11 0 -17 5 -14 10 3 6
13 10 21 10 8 0 14 -4 14 -10z"/>
<path d="M1947 6074 c-15 -15 -6 -24 19 -18 20 5 25 3 22 -7 -3 -8 -14 -15
-25 -17 -26 -4 -37 -30 -22 -48 6 -7 27 -12 47 -12 l37 0 -5 52 c-5 48 -7 51
-35 54 -17 2 -34 0 -38 -4z m43 -69 c0 -8 -7 -15 -15 -15 -16 0 -20 12 -8 23
11 12 23 8 23 -8z"/>
<path d="M2462 6058 c-16 -16 -15 -43 3 -58 17 -14 45 -7 45 12 0 10 -3 9 -9
-1 -12 -19 -41 -6 -41 19 0 25 28 38 42 19 8 -12 9 -11 5 1 -5 19 -29 24 -45
8z"/>
<path d="M2531 6025 l2 -40 6 35 c5 31 10 35 39 36 51 3 50 13 -2 11 l-46 -1
1 -41z"/>
<path d="M2650 6055 c-15 -18 -10 -45 12 -59 12 -7 21 -7 28 0 8 8 4 10 -11
10 -12 -1 -24 5 -26 12 -3 7 6 12 24 13 l28 1 -30 8 c-24 5 -27 8 -13 14 9 4
22 4 29 0 8 -4 9 -3 5 4 -10 16 -31 15 -46 -3z"/>
<path d="M3226 6062 c-3 -6 3 -8 14 -5 26 7 26 -14 0 -22 -11 -3 -20 -15 -20
-26 0 -15 6 -19 30 -17 29 2 31 5 28 38 -2 27 -8 36 -25 38 -11 2 -24 -1 -27
-6z m34 -47 c0 -8 -7 -15 -15 -15 -16 0 -20 12 -8 23 11 12 23 8 23 -8z"/>
<path d="M3295 6050 c-10 -32 4 -63 26 -57 13 3 19 0 19 -10 0 -11 -7 -14 -26
-10 -16 3 -22 1 -16 -5 6 -6 18 -8 28 -6 15 2 20 14 22 53 3 47 1 51 -22 53
-17 1 -27 -5 -31 -18z m40 -20 c0 -27 -22 -39 -31 -16 -8 22 3 49 19 43 6 -2
12 -14 12 -27z"/>
<path d="M3380 6056 c-17 -22 -5 -66 20 -66 10 0 21 4 24 8 3 5 -4 8 -16 8
-12 -1 -23 5 -25 12 -3 7 5 12 22 12 20 0 26 4 23 17 -4 23 -31 28 -48 9z m40
-6 c0 -5 -9 -10 -21 -10 -11 0 -17 5 -14 10 3 6 13 10 21 10 8 0 14 -4 14 -10z"/>
<path d="M3457 6063 c-13 -13 -7 -32 13 -38 11 -3 20 -11 20 -17 0 -6 -9 -8
-20 -5 -11 3 -20 1 -20 -5 0 -5 10 -8 22 -6 30 4 35 34 9 43 -27 8 -27 29 -1
22 11 -3 18 -1 14 4 -6 11 -28 12 -37 2z"/>
<path d="M3784 6056 c-3 -8 -4 -27 -1 -43 3 -24 4 -23 6 9 0 20 7 39 14 41 9
4 9 6 -1 6 -7 1 -15 -5 -18 -13z"/>
<path d="M3824 6056 c-3 -8 -4 -25 -2 -38 2 -17 9 -23 28 -23 22 0 25 4 25 35
0 29 -4 36 -23 38 -13 2 -24 -3 -28 -12z m41 -26 c0 -27 -22 -39 -31 -16 -8
22 3 49 19 43 6 -2 12 -14 12 -27z"/>
<path d="M3984 6030 c1 -31 4 -35 29 -36 25 -1 27 2 27 37 0 22 -4 39 -10 39
-5 0 -10 -16 -10 -35 0 -46 -27 -48 -33 -2 -4 32 -4 32 -3 -3z"/>
<path d="M4060 6055 c-15 -18 -10 -45 12 -59 12 -7 21 -7 28 0 8 8 4 10 -12
10 -18 -1 -23 4 -23 24 0 19 5 25 22 24 12 0 20 3 17 8 -8 13 -30 9 -44 -7z"/>
<path d="M4167 6063 c-13 -12 -7 -23 18 -35 28 -12 23 -32 -6 -25 -11 3 -17 1
-13 -4 8 -14 41 -11 47 5 6 16 -11 36 -30 36 -7 0 -13 5 -13 11 0 6 9 9 20 6
11 -3 18 -1 14 4 -6 11 -28 12 -37 2z"/>
<path d="M4520 6051 c-13 -26 4 -64 27 -59 25 5 40 35 27 56 -16 25 -41 26
-54 3z m45 -21 c0 -16 -6 -26 -17 -28 -14 -3 -18 3 -18 28 0 25 4 31 18 28 11
-2 17 -12 17 -28z"/>
<path d="M4595 6050 c-10 -32 4 -63 26 -57 13 3 19 0 19 -10 0 -11 -7 -14 -26
-10 -16 3 -22 1 -16 -5 6 -6 18 -8 28 -6 15 2 20 14 22 53 3 47 1 51 -22 53
-17 1 -27 -5 -31 -18z m40 -20 c0 -27 -22 -39 -31 -16 -8 22 3 49 19 43 6 -2
12 -14 12 -27z"/>
<path d="M5010 6055 c-26 -31 13 -82 44 -56 19 16 21 42 4 59 -16 16 -33 15
-48 -3z m44 -10 c8 -21 -3 -45 -20 -45 -18 0 -28 24 -20 45 3 8 12 15 20 15 7
0 16 -7 20 -15z"/>
<path d="M5080 6013 c0 -29 5 -53 10 -53 6 0 10 7 10 15 0 8 7 15 15 15 8 0
19 9 25 20 16 29 -4 60 -35 58 -23 -2 -25 -6 -25 -55z m50 17 c0 -32 -23 -42
-34 -15 -8 21 3 45 20 45 9 0 14 -11 14 -30z"/>
<path d="M5432 6058 c-27 -27 0 -77 34 -64 10 4 14 16 12 38 -3 35 -25 47 -46
26z m38 -28 c0 -32 -26 -43 -36 -15 -9 21 3 45 21 45 10 0 15 -10 15 -30z"/>
<path d="M5501 6026 l2 -41 6 35 c4 22 12 35 21 35 9 0 18 -13 22 -35 l6 -35
-1 40 c-2 36 -5 40 -29 41 -26 1 -28 -1 -27 -40z"/>
<path d="M5626 6062 c-3 -6 3 -8 14 -5 26 7 26 -14 0 -22 -11 -3 -20 -15 -20
-26 0 -15 6 -19 30 -17 29 2 31 5 28 38 -2 27 -8 36 -25 38 -11 2 -24 -1 -27
-6z m34 -47 c0 -8 -7 -15 -15 -15 -16 0 -20 12 -8 23 11 12 23 8 23 -8z"/>
<path d="M5700 6055 c-15 -18 -10 -45 12 -59 12 -7 21 -7 28 0 8 8 4 10 -12
10 -18 -1 -23 4 -23 24 0 19 5 25 22 24 12 0 20 3 17 8 -8 13 -30 9 -44 -7z"/>
<path d="M6065 6060 c-4 -7 2 -9 19 -4 34 8 34 -9 0 -25 -33 -15 -26 -36 12
-38 28 -1 29 0 26 38 -4 33 -8 39 -27 39 -13 0 -27 -5 -30 -10z m45 -40 c0
-13 -28 -25 -38 -16 -3 4 0 11 8 16 20 13 30 12 30 0z"/>
<path d="M6147 6063 c-13 -12 -7 -23 18 -35 28 -12 23 -32 -6 -25 -11 3 -17 1
-13 -4 8 -14 41 -11 47 5 6 16 -11 36 -30 36 -7 0 -13 5 -13 11 0 6 9 9 20 6
11 -3 18 -1 14 4 -6 11 -28 12 -37 2z"/>
<path d="M6370 6051 c-13 -26 4 -64 27 -59 25 5 40 35 27 56 -16 25 -41 26
-54 3z m45 -21 c0 -16 -6 -26 -17 -28 -14 -3 -18 3 -18 28 0 25 4 31 18 28 11
-2 17 -12 17 -28z"/>
<path d="M6445 6060 c-4 -7 2 -9 19 -4 34 8 34 -9 0 -25 -33 -15 -26 -36 12
-38 28 -1 29 0 26 38 -4 33 -8 39 -27 39 -13 0 -27 -5 -30 -10z m45 -40 c0
-13 -28 -25 -38 -16 -3 4 0 11 8 16 20 13 30 12 30 0z"/>
<path d="M6520 6028 c0 -21 5 -38 10 -38 6 0 10 15 10 34 0 19 6 36 13 39 6 3
2 4 -10 4 -20 -1 -23 -7 -23 -39z"/>
<path d="M2820 6052 c0 -5 7 -15 15 -22 12 -10 18 -10 30 0 8 7 15 17 15 22 0
6 -7 5 -15 -2 -12 -10 -18 -10 -30 0 -8 7 -15 8 -15 2z"/>
<path d="M2622 6020 c0 -19 2 -27 5 -17 2 9 2 25 0 35 -3 9 -5 1 -5 -18z"/>
<path d="M1976 5694 c-3 -26 -6 -87 -6 -136 0 -49 -4 -87 -9 -84 -5 3 -11 -4
-15 -17 -8 -32 -7 -37 7 -34 8 1 13 -19 15 -70 2 -42 -1 -73 -7 -73 -5 0 -10
-56 -10 -136 -1 -75 -4 -140 -7 -145 -8 -14 -62 -11 -67 4 -3 6 -6 2 -6 -10
-1 -18 5 -22 37 -25 25 -2 37 -8 37 -18 0 -10 -12 -16 -37 -18 -36 -3 -52 11
-25 21 6 3 2 6 -10 6 -15 1 -21 -4 -17 -12 2 -7 -6 -19 -18 -26 -17 -9 -31
-37 -55 -111 -47 -147 -97 -224 -242 -375 -102 -105 -133 -144 -163 -205 -47
-98 -68 -202 -75 -379 l-6 -144 54 7 c57 8 69 17 69 56 1 145 11 307 20 340
14 52 89 135 136 150 53 18 88 5 128 -47 42 -54 45 -85 21 -248 -31 -214 -22
-234 108 -235 44 0 77 -4 77 -10 0 -5 -15 -10 -32 -10 -18 -1 -49 -3 -68 -6
-19 -3 -96 -8 -170 -13 -103 -5 -45 -7 240 -7 241 0 346 2 295 7 -44 5 -91 11
-105 14 -23 6 -24 7 -6 17 20 11 340 5 475 -9 l64 -6 -6 179 c-6 201 -18 256
-82 370 -21 37 -76 108 -124 158 -47 50 -103 114 -124 143 -51 70 -102 184
-122 270 -18 81 -40 103 -100 103 -28 0 -35 4 -35 20 0 21 30 27 65 14 13 -5
14 -8 3 -15 -10 -7 -9 -9 5 -9 9 0 17 2 17 4 0 11 -29 69 -30 59 0 -19 -48
-15 -59 5 -8 15 -5 211 3 255 2 9 0 17 -5 17 -5 0 -9 29 -9 65 0 59 2 65 21
65 15 0 19 4 15 16 -3 9 -9 26 -12 39 -3 13 -12 26 -20 29 -11 4 -13 27 -7
126 4 79 3 120 -4 120 -6 0 -13 -21 -17 -46z m-92 -780 c23 -9 20 -34 -8 -69
l-23 -29 -7 31 c-4 18 -3 41 4 52 12 23 12 23 34 15z"/>
<path d="M2030 5270 c0 -5 5 -10 11 -10 5 0 7 5 4 10 -3 6 -8 10 -11 10 -2 0
-4 -4 -4 -10z"/>
<path d="M2075 5181 c-3 -5 -1 -12 5 -16 5 -3 10 1 10 9 0 18 -6 21 -15 7z"/>
<path d="M1873 5095 c0 -27 2 -38 4 -22 2 15 2 37 0 50 -2 12 -4 0 -4 -28z"/>
<path d="M4030 4191 c0 -50 1 -51 29 -51 17 0 32 4 35 8 3 5 -8 6 -25 4 -25
-4 -29 -1 -29 18 0 19 4 22 29 18 17 -2 28 -1 25 4 -3 4 -16 8 -30 8 -15 0
-24 6 -24 15 0 17 45 21 53 5 3 -6 4 -5 3 2 -1 7 -17 14 -34 16 l-32 3 0 -50z"/>
<path d="M4269 4229 c-2 -29 3 -74 9 -81 4 -4 6 13 5 38 -1 43 -12 74 -14 43z"/>
<path d="M4363 4233 c9 -2 25 -2 35 0 9 3 1 5 -18 5 -19 0 -27 -2 -17 -5z"/>
<path d="M4963 4233 c9 -2 25 -2 35 0 9 3 1 5 -18 5 -19 0 -27 -2 -17 -5z"/>
<path d="M5200 4220 c6 -11 13 -20 16 -20 2 0 0 9 -6 20 -6 11 -13 20 -16 20
-2 0 0 -9 6 -20z"/>
<path d="M5548 4233 c7 -3 16 -2 19 1 4 3 -2 6 -13 5 -11 0 -14 -3 -6 -6z"/>
<path d="M4218 4213 c7 -3 16 -2 19 1 4 3 -2 6 -13 5 -11 0 -14 -3 -6 -6z"/>
<path d="M4483 4180 c0 -25 2 -35 4 -22 2 12 2 32 0 45 -2 12 -4 2 -4 -23z"/>
<path d="M4513 4180 c0 -25 2 -35 4 -22 2 12 2 32 0 45 -2 12 -4 2 -4 -23z"/>
<path d="M4587 4213 c6 -4 13 -24 16 -43 4 -34 4 -33 3 4 -1 26 -6 41 -16 43
-10 3 -11 2 -3 -4z"/>
<path d="M4668 4213 c7 -3 16 -2 19 1 4 3 -2 6 -13 5 -11 0 -14 -3 -6 -6z"/>
<path d="M4753 4185 c0 -22 2 -30 4 -17 2 12 2 30 0 40 -3 9 -5 -1 -4 -23z"/>
<path d="M4795 4210 c-3 -6 1 -7 9 -4 18 7 21 14 7 14 -6 0 -13 -4 -16 -10z"/>
<path d="M4836 4211 c-4 -5 3 -7 14 -4 23 6 26 13 6 13 -8 0 -17 -4 -20 -9z"/>
<path d="M5280 4205 c-15 -18 -10 -45 12 -59 12 -7 21 -7 28 0 8 8 4 10 -12
10 -18 -1 -23 4 -23 24 0 19 5 25 22 24 12 0 20 3 17 8 -8 13 -30 9 -44 -7z"/>
<path d="M5352 4190 c0 -19 2 -27 5 -17 2 9 2 25 0 35 -3 9 -5 1 -5 -18z"/>
<path d="M5643 4214 c23 -7 21 -19 -5 -33 -22 -11 -22 -11 -1 -6 15 4 23 1 26
-12 3 -10 5 -2 4 17 -2 27 -7 35 -22 37 -16 1 -16 1 -2 -3z"/>
<path d="M5694 4208 c-7 -11 22 -39 40 -37 6 0 1 5 -11 11 -28 14 -30 32 -3
25 11 -3 18 -1 14 4 -7 13 -31 11 -40 -3z"/>
<path d="M5850 4216 c0 -2 9 -6 20 -9 11 -3 18 -1 14 4 -5 9 -34 13 -34 5z"/>
<path d="M5113 4175 c0 -22 2 -30 4 -17 2 12 2 30 0 40 -3 9 -5 -1 -4 -23z"/>
<path d="M5433 4175 c0 -22 2 -30 4 -17 2 12 2 30 0 40 -3 9 -5 -1 -4 -23z"/>
<path d="M4145 4190 l-30 -8 33 -1 c17 0 32 4 32 9 0 6 -1 9 -2 9 -2 -1 -16
-5 -33 -9z"/>
<path d="M4363 4193 c9 -2 23 -2 30 0 6 3 -1 5 -18 5 -16 0 -22 -2 -12 -5z"/>
<path d="M4855 4190 l-30 -8 33 -1 c17 0 32 4 32 9 0 6 -1 9 -2 9 -2 -1 -16
-5 -33 -9z"/>
<path d="M4963 4193 c9 -2 23 -2 30 0 6 3 -1 5 -18 5 -16 0 -22 -2 -12 -5z"/>
<path d="M5082 4180 c0 -14 2 -19 5 -12 2 6 2 18 0 25 -3 6 -5 1 -5 -13z"/>
<path d="M5832 4177 c4 -26 34 -45 48 -31 8 8 4 10 -11 10 -33 -1 -35 22 -2
26 28 3 28 4 -5 9 -29 5 -33 3 -30 -14z"/>
<path d="M4218 4180 c26 -11 29 -27 5 -33 -17 -4 -17 -5 0 -6 10 0 20 6 24 15
6 17 -12 34 -37 33 -8 0 -5 -4 8 -9z"/>
<path d="M4150 4150 c-23 -7 -23 -8 -3 -9 12 -1 25 4 28 9 3 6 5 10 3 9 -2 -1
-14 -5 -28 -9z"/>
<path d="M4447 4149 c7 -7 15 -10 18 -7 3 3 -2 9 -12 12 -14 6 -15 5 -6 -5z"/>
<path d="M4717 4149 c7 -7 15 -10 18 -7 3 3 -2 9 -12 12 -14 6 -15 5 -6 -5z"/>
<path d="M4838 4148 c5 -5 16 -8 23 -6 8 3 3 7 -10 11 -17 4 -21 3 -13 -5z"/>
<path d="M5375 4150 c-16 -7 -17 -9 -3 -9 9 -1 20 4 23 9 7 11 7 11 -20 0z"/>
<path d="M5698 4148 c5 -5 16 -8 23 -6 8 3 3 7 -10 11 -17 4 -21 3 -13 -5z"/>
<path d="M5548 4143 c7 -3 16 -2 19 1 4 3 -2 6 -13 5 -11 0 -14 -3 -6 -6z"/>
<path d="M5628 4143 c7 -3 16 -2 19 1 4 3 -2 6 -13 5 -11 0 -14 -3 -6 -6z"/>
<path d="M4050 3820 c0 -123 1 -130 20 -130 18 0 20 7 20 81 0 46 4 78 9 75 5
-4 29 -40 53 -81 37 -64 47 -75 71 -75 l27 0 0 130 0 130 -25 0 c-24 0 -24 -2
-27 -82 l-3 -83 -50 83 c-39 64 -55 82 -72 82 -23 0 -23 -2 -23 -130z"/>
<path d="M4890 3820 c0 -123 1 -130 20 -130 18 0 20 7 20 60 l0 60 55 0 c48 0
55 2 55 20 0 18 -7 20 -55 20 -54 0 -55 0 -55 30 l0 30 65 0 c58 0 65 2 65 20
0 18 -7 20 -85 20 l-85 0 0 -130z"/>
<path d="M5680 3930 c0 -15 7 -20 25 -20 18 0 25 5 25 20 0 15 -7 20 -25 20
-18 0 -25 -5 -25 -20z"/>
<path d="M5813 3935 c-13 -9 -23 -23 -23 -31 0 -8 -4 -14 -10 -14 -5 0 -10 -9
-10 -20 0 -11 5 -20 10 -20 6 0 10 -30 10 -70 0 -60 3 -71 21 -80 28 -15 63
-9 67 13 2 12 -3 17 -17 17 -19 0 -21 6 -21 60 0 47 3 60 15 60 8 0 15 9 15
20 0 11 -6 20 -14 20 -9 0 -16 12 -18 30 -3 30 -4 30 -25 15z"/>
<path d="M9791 3884 c0 -11 3 -14 6 -6 3 7 2 16 -1 19 -3 4 -6 -2 -5 -13z"/>
<path d="M4325 3867 c-20 -16 -28 -35 -32 -69 -5 -42 -3 -50 25 -78 37 -36 77
-39 117 -8 27 21 27 22 6 30 -13 5 -29 3 -41 -5 -23 -14 -53 0 -58 27 -3 13 6
16 57 16 l61 0 0 30 c0 69 -82 103 -135 57z m83 -39 c3 -15 -4 -18 -32 -18
-38 0 -44 8 -24 28 17 17 52 11 56 -10z"/>
<path d="M4506 3813 c13 -43 27 -88 30 -100 4 -16 14 -23 30 -23 19 0 25 8 34
43 21 84 26 86 41 22 13 -53 18 -60 39 -60 21 0 27 9 52 90 15 50 28 93 28 98
0 4 -11 7 -23 7 -21 0 -25 -7 -36 -55 -7 -30 -16 -57 -20 -59 -4 -3 -13 22
-20 55 -10 52 -14 59 -36 59 -20 0 -26 -7 -35 -42 -21 -85 -25 -86 -44 -20
-15 54 -20 62 -41 62 l-23 0 24 -77z"/>
<path d="M5100 3826 c0 -114 32 -155 102 -128 16 6 28 6 28 1 0 -5 9 -9 20 -9
19 0 20 7 20 100 0 100 0 100 -25 100 -23 0 -24 -3 -27 -71 -2 -54 -7 -75 -20
-82 -32 -20 -48 8 -48 84 0 67 -1 69 -25 69 -24 0 -25 -2 -25 -64z"/>
<path d="M5320 3790 l0 -100 25 0 c24 0 25 3 25 56 0 64 13 94 39 94 20 0 35
25 25 41 -8 13 -38 11 -52 -3 -9 -9 -12 -9 -12 0 0 7 -11 12 -25 12 l-25 0 0
-100z"/>
<path d="M5460 3790 l0 -100 25 0 c24 0 25 3 25 54 0 75 14 108 43 104 20 -3
22 -9 25 -80 3 -75 4 -78 27 -78 25 0 25 1 25 83 0 69 -3 87 -18 100 -22 20
-63 22 -81 5 -11 -10 -14 -10 -18 0 -3 6 -16 12 -29 12 -24 0 -24 -1 -24 -100z"/>
<path d="M5680 3790 l0 -100 25 0 25 0 0 100 0 100 -25 0 -25 0 0 -100z"/>
<path d="M5900 3826 c0 -114 32 -155 102 -128 16 6 28 6 28 1 0 -5 9 -9 20 -9
19 0 20 7 20 100 0 100 0 100 -25 100 -23 0 -24 -3 -27 -71 -2 -54 -7 -75 -20
-82 -32 -20 -48 8 -48 84 0 67 -1 69 -25 69 -24 0 -25 -2 -25 -64z"/>
<path d="M6120 3790 l0 -100 25 0 c24 0 25 3 25 56 0 64 13 94 39 94 20 0 35
25 25 41 -8 13 -38 11 -52 -3 -9 -9 -12 -9 -12 0 0 7 -11 12 -25 12 l-25 0 0
-100z"/>
<path d="M6285 3867 c-20 -16 -28 -35 -32 -69 -5 -42 -3 -50 25 -78 37 -36 77
-39 117 -8 27 21 27 22 6 30 -13 5 -29 3 -41 -5 -23 -14 -53 0 -58 27 -3 13 6
16 57 16 l61 0 0 30 c0 69 -82 103 -135 57z m83 -39 c3 -15 -4 -18 -32 -18
-38 0 -44 8 -24 28 17 17 52 11 56 -10z"/>
<path d="M9801 3814 c0 -11 3 -14 6 -6 3 7 2 16 -1 19 -3 4 -6 -2 -5 -13z"/>
<path d="M9811 3724 c0 -11 3 -14 6 -6 3 7 2 16 -1 19 -3 4 -6 -2 -5 -13z"/>
<path d="M10602 3691 c-16 -22 -34 -53 -41 -68 -14 -36 -101 -343 -101 -359 0
-13 -126 -134 -140 -134 -5 0 -16 -7 -24 -16 -12 -11 -16 -12 -16 -2 -2 273
-8 438 -18 460 -6 14 -12 49 -13 77 -2 28 -7 51 -11 51 -5 0 -6 6 -2 13 6 9 4
9 -8 -1 -12 -9 -18 -48 -27 -155 -11 -145 -31 -529 -31 -603 l0 -41 120 -7
c186 -10 307 -45 502 -143 27 -13 49 -19 52 -14 4 5 2 12 -4 16 -17 10 -11
101 9 157 11 29 23 82 26 118 4 36 11 67 16 71 6 3 11 17 12 30 0 13 4 26 9
29 11 8 11 59 -2 115 -6 28 -10 64 -9 80 2 53 1 54 -26 42 -14 -7 -25 -19 -25
-27 0 -13 -1 -13 -10 0 -6 10 -6 16 0 18 6 2 10 11 10 21 0 9 4 21 9 27 4 5
11 22 15 37 l7 28 -28 -18 c-15 -9 -44 -29 -63 -43 -35 -26 -90 -53 -96 -48
-1 2 -4 43 -5 91 -2 49 -7 91 -11 93 -4 3 -8 14 -8 25 0 11 -7 34 -16 50 -12
25 -18 28 -30 18 -20 -16 -18 5 2 26 9 9 14 18 11 21 -3 3 -19 -12 -35 -35z"/>
<path d="M9845 3620 c3 -47 13 -148 21 -225 15 -154 34 -402 34 -452 0 -30 3
-33 30 -33 l30 0 0 93 c-1 87 -12 201 -26 257 -3 14 -6 35 -5 47 0 12 -4 25
-9 28 -6 4 -8 10 -6 14 3 4 -1 32 -9 61 -8 29 -12 57 -10 61 8 12 -7 39 -18
32 -6 -4 -7 -1 -3 6 7 11 -20 180 -31 191 -3 3 -2 -33 2 -80z"/>
<path d="M1267 3683 c-24 -24 27 -30 113 -13 36 7 29 8 -33 4 -54 -3 -77 -2
-72 6 7 11 2 14 -8 3z"/>
<path d="M2370 3671 l35 -7 -35 -11 c-52 -17 -405 -32 -505 -21 -11 1 -92 0
-180 -2 l-160 -3 155 -9 c242 -14 910 3 910 23 0 14 -65 28 -160 33 -52 2 -79
1 -60 -3z"/>
<path d="M1346 3652 c-9 -14 30 -22 104 -20 l65 1 -55 7 c-30 3 -67 10 -81 14
-15 4 -29 3 -33 -2z"/>
<path d="M4105 3541 c-74 -32 -93 -158 -32 -219 47 -46 139 -38 175 15 13 21
13 23 -9 31 -19 7 -27 4 -42 -14 -23 -29 -60 -31 -87 -4 -15 15 -20 33 -20 70
0 37 5 55 20 70 26 26 64 26 88 0 14 -16 24 -18 42 -12 l22 8 -24 28 c-18 21
-35 29 -68 32 -25 2 -54 0 -65 -5z"/>
<path d="M4520 3420 l0 -130 25 0 25 0 0 130 0 130 -25 0 -25 0 0 -130z"/>
<path d="M4620 3420 l0 -130 25 0 25 0 0 130 0 130 -25 0 -25 0 0 -130z"/>
<path d="M5153 3535 c-13 -9 -23 -23 -23 -31 0 -8 -4 -14 -10 -14 -5 0 -10 -9
-10 -20 0 -11 5 -20 10 -20 6 0 10 -30 10 -70 0 -60 3 -71 21 -80 28 -15 63
-9 67 13 2 12 -3 17 -17 17 -19 0 -21 6 -21 60 0 47 3 60 15 60 8 0 15 9 15
20 0 11 -6 20 -14 20 -9 0 -16 12 -18 30 -3 30 -4 30 -25 15z"/>
<path d="M5240 3530 c0 -15 7 -20 25 -20 18 0 25 5 25 20 0 15 -7 20 -25 20
-18 0 -25 -5 -25 -20z"/>
<path d="M5880 3530 c0 -16 7 -20 35 -20 l35 0 0 -110 0 -110 25 0 25 0 0 110
0 110 40 0 c33 0 40 3 40 20 0 19 -7 20 -100 20 -93 0 -100 -1 -100 -20z"/>
<path d="M6770 3510 c0 -38 -12 -52 -25 -30 -11 18 -53 11 -81 -13 -22 -20
-27 -32 -27 -70 0 -78 51 -125 109 -98 15 6 24 7 24 1 0 -6 9 -10 20 -10 19 0
20 7 20 130 0 123 -1 130 -20 130 -17 0 -20 -7 -20 -40z m-23 -68 c7 -4 15
-21 19 -38 13 -64 -65 -101 -80 -38 -14 56 22 101 61 76z"/>
<path d="M7160 3530 c0 -15 7 -20 25 -20 18 0 25 5 25 20 0 15 -7 20 -25 20
-18 0 -25 -5 -25 -20z"/>
<path d="M4338 3475 c-59 -32 -58 -139 2 -170 42 -22 74 -18 109 11 27 22 31
32 31 74 0 42 -4 52 -31 74 -34 29 -71 32 -111 11z m88 -51 c20 -29 11 -69
-18 -88 -23 -14 -50 2 -62 37 -11 31 15 77 44 77 11 0 27 -12 36 -26z"/>
<path d="M4745 3467 c-20 -16 -28 -35 -32 -69 -5 -42 -3 -50 25 -78 37 -36 77
-39 117 -8 27 21 27 22 6 30 -13 5 -29 3 -41 -5 -23 -14 -53 0 -58 27 -3 13 6
16 57 16 l61 0 0 30 c0 69 -82 103 -135 57z m83 -39 c3 -15 -4 -18 -32 -18
-38 0 -44 8 -24 28 17 17 52 11 56 -10z"/>
<path d="M4953 3475 c-30 -21 -44 -75 -32 -120 21 -75 120 -92 154 -25 13 26
13 28 -7 33 -15 4 -26 0 -36 -14 -34 -49 -90 17 -64 76 13 28 46 33 60 9 6
-11 16 -14 31 -9 26 8 27 19 1 45 -24 24 -77 26 -107 5z"/>
<path d="M5240 3390 l0 -100 25 0 25 0 0 100 0 100 -25 0 -25 0 0 -100z"/>
<path d="M5378 3475 c-59 -32 -58 -139 2 -170 42 -22 74 -18 109 11 27 22 31
32 31 74 0 42 -4 52 -31 74 -34 29 -71 32 -111 11z m88 -51 c20 -29 11 -69
-18 -88 -23 -14 -50 2 -62 37 -11 31 15 77 44 77 11 0 27 -12 36 -26z"/>
<path d="M5560 3390 l0 -100 25 0 c24 0 25 3 25 54 0 75 14 108 43 104 20 -3
22 -9 25 -80 3 -75 4 -78 27 -78 25 0 25 1 25 83 0 69 -3 87 -18 100 -22 20
-63 22 -81 5 -11 -10 -14 -10 -18 0 -3 6 -16 12 -29 12 -24 0 -24 -1 -24 -100z"/>
<path d="M6080 3390 l0 -100 25 0 c24 0 25 3 25 56 0 64 13 94 39 94 20 0 35
25 25 41 -8 13 -38 11 -52 -3 -9 -9 -12 -9 -12 0 0 7 -11 12 -25 12 l-25 0 0
-100z"/>
<path d="M6245 3467 c-20 -16 -28 -35 -32 -69 -5 -42 -3 -50 25 -78 37 -36 77
-39 117 -8 27 21 27 22 6 30 -13 5 -29 3 -41 -5 -23 -14 -53 0 -58 27 -3 13 6
16 57 16 l61 0 0 30 c0 69 -82 103 -135 57z m83 -39 c3 -15 -4 -18 -32 -18
-38 0 -44 8 -24 28 17 17 52 11 56 -10z"/>
<path d="M6420 3390 l0 -100 25 0 c24 0 25 3 25 54 0 75 14 108 43 104 20 -3
22 -9 25 -80 3 -75 4 -78 27 -78 25 0 25 1 25 83 0 69 -3 87 -18 100 -22 20
-63 22 -81 5 -11 -10 -14 -10 -18 0 -3 6 -16 12 -29 12 -24 0 -24 -1 -24 -100z"/>
<path d="M6875 3466 c-36 -36 -22 -67 41 -87 28 -9 49 -22 49 -30 0 -17 -42
-24 -59 -10 -8 7 -22 8 -35 3 -35 -13 -4 -43 50 -49 35 -4 50 -1 72 17 30 24
36 60 12 80 -8 6 -34 18 -57 25 -24 7 -43 18 -43 26 0 18 42 24 59 10 14 -12
46 -5 46 10 0 13 -45 29 -81 29 -18 0 -39 -9 -54 -24z"/>
<path d="M7160 3390 l0 -100 25 0 25 0 0 100 0 100 -25 0 -25 0 0 -100z"/>
<path d="M7260 3390 l0 -100 25 0 c24 0 25 3 25 54 0 75 14 108 43 104 20 -3
22 -9 25 -80 3 -75 4 -78 27 -78 25 0 25 1 25 83 0 69 -3 87 -18 100 -22 20
-63 22 -81 5 -11 -10 -14 -10 -18 0 -3 6 -16 12 -29 12 -24 0 -24 -1 -24 -100z"/>
<path d="M8780 3440 c6 -11 13 -20 16 -20 2 0 0 9 -6 20 -6 11 -13 20 -16 20
-2 0 0 -9 6 -20z"/>
<path d="M8810 3382 c0 -5 7 -15 15 -22 8 -7 15 -9 15 -6 0 4 -7 14 -15 22 -8
9 -15 11 -15 6z"/>
<path d="M8972 3267 c18 -23 35 -44 39 -47 4 -3 15 -19 25 -36 11 -17 30 -48
44 -70 40 -61 108 -250 130 -364 6 -30 23 -93 36 -140 14 -47 29 -98 34 -115
60 -217 102 -346 118 -362 22 -22 26 -7 8 31 -9 19 -16 40 -15 48 0 7 5 2 11
-12 6 -14 10 -29 9 -33 0 -4 10 0 25 9 25 17 25 17 22 -11 -3 -25 1 -29 42
-41 63 -19 97 -17 120 6 23 23 37 19 50 -14 9 -21 9 -21 9 3 1 24 9 25 77 5
18 -5 20 -2 16 25 -3 22 -10 31 -23 31 -11 0 -19 4 -19 9 0 5 -12 12 -26 15
-28 7 -23 21 11 29 11 3 3 6 -20 7 -55 3 -148 27 -115 30 l25 2 -25 7 c-14 5
-48 11 -75 14 l-50 6 45 -14 c57 -17 36 -18 -46 -3 -62 11 -78 21 -51 31 7 3
5 6 -5 6 -12 1 -18 9 -18 26 0 14 -11 36 -24 48 -28 26 -57 106 -49 136 3 11
-2 39 -11 62 -12 29 -15 55 -10 84 3 26 2 45 -4 49 -6 4 -14 28 -18 54 -3 26
-12 61 -20 77 -7 17 -23 65 -34 109 -11 43 -34 98 -50 122 -17 23 -30 47 -30
52 0 6 -7 12 -15 16 -8 3 -15 12 -15 19 0 8 -15 28 -32 45 -18 17 -40 40 -50
49 -9 10 -30 23 -47 30 l-31 11 32 -41z"/>
<path d="M4075 3138 c-25 -14 -35 -28 -35 -50 0 -25 32 -23 48 3 18 28 56 22
60 -10 3 -17 -9 -36 -41 -70 -102 -107 -101 -121 8 -121 84 0 85 0 85 25 0 23
-3 25 -52 25 l-53 1 41 37 c71 63 84 115 38 151 -29 23 -68 27 -99 9z"/>
<path d="M4266 3127 c-45 -45 -42 -182 5 -219 31 -26 71 -22 100 8 21 23 24
35 24 104 0 69 -3 81 -24 104 -31 33 -74 34 -105 3z m73 -31 c19 -23 10 -146
-11 -160 -26 -16 -41 5 -46 66 -6 84 24 134 57 94z"/>
<path d="M4475 3138 c-25 -14 -35 -28 -35 -50 0 -25 32 -23 48 3 18 28 56 22
60 -10 3 -17 -9 -36 -41 -70 -102 -107 -101 -121 8 -121 84 0 85 0 85 25 0 23
-3 25 -52 25 l-53 1 41 37 c71 63 84 115 38 151 -29 23 -68 27 -99 9z"/>
<path d="M4666 3127 c-45 -45 -42 -182 5 -219 31 -26 71 -22 100 8 21 23 24
35 24 104 0 69 -3 81 -24 104 -31 33 -74 34 -105 3z m73 -31 c19 -23 10 -146
-11 -160 -26 -16 -41 5 -46 66 -6 84 24 134 57 94z"/>
<path d="M9621 3074 c0 -11 3 -14 6 -6 3 7 2 16 -1 19 -3 4 -6 -2 -5 -13z"/>
<path d="M9637 3005 c3 -22 7 -42 9 -44 8 -9 2 45 -6 64 -7 14 -8 8 -3 -20z"/>
<path d="M321 2934 c-22 -28 -18 -47 14 -74 24 -20 28 -6 6 21 -19 23 -19 24
1 51 25 35 6 37 -21 2z"/>
<path d="M12280 2951 c0 -5 7 -14 15 -21 20 -17 19 -30 -7 -57 -12 -13 -16
-23 -9 -23 6 0 22 12 35 27 l24 27 -21 28 c-21 28 -37 36 -37 19z"/>
<path d="M9652 2935 c0 -11 4 -31 8 -45 l8 -25 0 25 c0 14 -3 34 -8 45 l-9 20
1 -20z"/>
<path d="M9502 2496 l3 -134 90 -17 c87 -16 547 -35 535 -22 -3 3 -41 6 -85 8
-44 1 -86 6 -93 12 -7 5 -31 11 -55 14 -74 6 -81 9 -97 38 -9 16 -24 31 -34
34 -9 4 -17 10 -17 14 4 35 -1 77 -8 73 -9 -6 -44 28 -36 35 2 3 -5 6 -17 6
-21 2 -34 10 -27 17 2 2 69 0 149 -4 80 -5 219 -8 310 -8 l165 1 -223 8 c-224
7 -352 20 -472 45 -36 7 -71 14 -78 14 -11 0 -13 -28 -10 -134z"/>
<path d="M4032 2543 l-2 -53 33 1 c29 2 29 2 5 6 -24 4 -27 9 -31 51 l-3 47
-2 -52z"/>
<path d="M4920 2581 c0 -5 -9 -11 -20 -14 -38 -10 -37 -64 1 -75 8 -2 6 2 -5
10 -21 17 -18 51 6 56 13 2 18 -6 21 -35 3 -32 4 -30 5 15 1 28 0 52 -3 52 -3
0 -5 -4 -5 -9z"/>
<path d="M5033 2540 c0 -30 2 -43 4 -27 2 15 2 39 0 55 -2 15 -4 2 -4 -28z"/>
<path d="M5329 2579 c-2 -29 3 -74 9 -81 4 -4 6 13 5 38 -1 43 -12 74 -14 43z"/>
<path d="M5679 2579 c-2 -29 3 -74 9 -81 4 -4 6 13 5 38 -1 43 -12 74 -14 43z"/>
<path d="M6239 2579 c-2 -29 3 -74 9 -81 4 -4 6 13 5 38 -1 43 -12 74 -14 43z"/>
<path d="M6680 2581 c0 -5 -9 -11 -20 -14 -38 -10 -37 -64 1 -75 8 -2 6 2 -5
10 -21 17 -18 51 6 56 13 2 18 -6 21 -35 3 -32 4 -30 5 15 1 28 0 52 -3 52 -3
0 -5 -4 -5 -9z"/>
<path d="M7303 2540 c0 -30 2 -43 4 -27 2 15 2 39 0 55 -2 15 -4 2 -4 -28z"/>
<path d="M7359 2579 c-2 -29 3 -74 9 -81 4 -4 6 13 5 38 -1 43 -12 74 -14 43z"/>
<path d="M4110 2555 c-15 -18 -10 -45 12 -59 12 -7 21 -7 28 0 8 8 4 10 -12
10 -18 -1 -23 4 -23 24 0 19 5 25 22 24 12 0 20 3 17 8 -8 13 -30 9 -44 -7z"/>
<path d="M4195 2560 c-3 -6 1 -7 9 -4 18 7 21 14 7 14 -6 0 -13 -4 -16 -10z"/>
<path d="M4234 2556 c-16 -42 20 -86 48 -58 6 6 0 8 -16 5 -19 -4 -26 -1 -26
11 0 10 9 16 25 16 14 0 25 4 25 9 0 4 -11 6 -25 3 -14 -2 -25 0 -25 6 0 6 10
13 23 15 l22 4 -23 2 c-12 0 -25 -5 -28 -13z"/>
<path d="M4313 2530 c0 -25 2 -35 4 -22 2 12 2 32 0 45 -2 12 -4 2 -4 -23z"/>
<path d="M4339 2562 c6 -2 12 -20 12 -40 l2 -37 6 35 c4 25 11 35 24 34 9 -1
17 2 17 6 0 4 -16 8 -36 7 -20 -1 -32 -3 -25 -5z"/>
<path d="M4520 2566 c0 -2 7 -7 16 -10 8 -3 12 -2 9 4 -6 10 -25 14 -25 6z"/>
<path d="M4577 2563 c-13 -12 -7 -23 18 -35 28 -12 23 -32 -6 -25 -11 3 -17 1
-13 -4 8 -14 30 -11 44 6 10 12 7 17 -14 26 -31 14 -35 34 -6 26 11 -3 18 -1
14 4 -6 11 -28 12 -37 2z"/>
<path d="M4693 2530 c0 -25 2 -35 4 -22 2 12 2 32 0 45 -2 12 -4 2 -4 -23z"/>
<path d="M4721 2525 l2 -40 6 35 c5 31 10 35 39 36 51 3 50 13 -2 11 l-46 -1
1 -41z"/>
<path d="M4962 2558 c-16 -16 -15 -43 3 -58 17 -14 45 -7 45 12 0 10 -3 9 -9
-1 -12 -19 -41 -6 -41 19 0 25 28 38 42 19 8 -12 9 -11 5 1 -5 19 -29 24 -45
8z"/>
<path d="M5072 2558 c-16 -16 -15 -43 3 -58 17 -14 45 -7 45 12 0 10 -3 9 -9
-1 -12 -19 -41 -6 -41 19 0 25 28 38 42 19 8 -12 9 -11 5 1 -5 19 -29 24 -45
8z"/>
<path d="M5143 2530 c0 -25 2 -35 4 -22 2 12 2 32 0 45 -2 12 -4 2 -4 -23z"/>
<path d="M5227 2563 c-13 -13 -7 -23 26 -39 29 -16 31 -16 18 -1 -7 10 -20 17
-27 17 -8 0 -14 5 -14 11 0 6 9 9 20 6 11 -3 18 -1 14 4 -6 11 -28 12 -37 2z"/>
<path d="M5303 2530 c0 -25 2 -35 4 -22 2 12 2 32 0 45 -2 12 -4 2 -4 -23z"/>
<path d="M5416 2561 c-3 -5 3 -7 14 -4 29 8 25 -12 -6 -26 -32 -14 -26 -36 10
-37 25 -1 27 2 24 35 -3 35 -28 55 -42 32z m34 -41 c0 -13 -28 -25 -38 -16 -3
4 0 11 8 16 20 13 30 12 30 0z"/>
<path d="M5496 2561 c-3 -5 2 -7 13 -4 17 4 20 -1 24 -34 l4 -38 -1 40 c-1 29
-6 41 -18 43 -9 2 -19 -1 -22 -7z"/>
<path d="M5557 2563 c6 -4 13 -24 16 -43 4 -34 4 -33 3 4 -1 26 -6 41 -16 43
-10 3 -11 2 -3 -4z"/>
<path d="M5604 2556 c-16 -42 20 -86 48 -58 6 6 0 8 -16 5 -19 -4 -26 -1 -26
11 0 10 9 16 25 16 14 0 25 4 25 9 0 4 -11 6 -25 3 -14 -2 -25 0 -25 6 0 6 10
13 23 15 l22 4 -23 2 c-12 0 -25 -5 -28 -13z"/>
<path d="M5800 2555 c-15 -18 -10 -45 12 -59 12 -7 21 -7 28 0 8 8 4 10 -12
10 -18 -1 -23 4 -23 24 0 19 5 25 22 24 12 0 20 3 17 8 -8 13 -30 9 -44 -7z"/>
<path d="M5872 2558 c-16 -16 -15 -43 3 -58 17 -14 45 -7 45 12 0 10 -3 9 -9
-1 -12 -19 -41 -6 -41 19 0 25 28 38 42 19 8 -12 9 -11 5 1 -5 19 -29 24 -45
8z"/>
<path d="M5956 2561 c-3 -5 2 -7 13 -4 17 4 20 -1 24 -34 l4 -38 -1 40 c-1 29
-6 41 -18 43 -9 2 -19 -1 -22 -7z"/>
<path d="M6027 2563 c-13 -13 -7 -31 13 -36 11 -3 20 -11 20 -17 0 -8 -8 -10
-21 -7 -16 4 -19 3 -11 -5 14 -14 42 -3 42 16 0 8 -9 18 -20 21 -26 8 -26 29
0 22 11 -3 18 -1 14 4 -6 11 -28 12 -37 2z"/>
<path d="M6094 2556 c-16 -42 20 -86 48 -58 6 6 0 8 -16 5 -19 -4 -26 -1 -26
11 0 10 9 16 25 16 14 0 25 4 25 9 0 4 -11 6 -25 3 -14 -2 -25 0 -25 6 0 6 10
13 23 15 l22 4 -23 2 c-12 0 -25 -5 -28 -13z"/>
<path d="M6175 2559 c-4 -6 -4 -13 -1 -16 3 -4 6 -1 6 6 0 8 8 11 20 8 11 -3
18 -1 14 4 -7 12 -31 11 -39 -2z"/>
<path d="M6280 2555 c-15 -18 -10 -45 12 -59 12 -7 21 -7 28 0 8 8 4 10 -11
10 -12 -1 -24 5 -26 12 -3 7 6 12 24 13 l28 1 -30 8 c-24 5 -27 8 -13 14 9 4
22 4 29 0 8 -4 9 -3 5 4 -10 16 -31 15 -46 -3z"/>
<path d="M6358 2563 c7 -3 16 -2 19 1 4 3 -2 6 -13 5 -11 0 -14 -3 -6 -6z"/>
<path d="M6443 2530 c0 -25 2 -35 4 -22 2 12 2 32 0 45 -2 12 -4 2 -4 -23z"/>
<path d="M6473 2530 c0 -25 2 -35 4 -22 2 12 2 32 0 45 -2 12 -4 2 -4 -23z"/>
<path d="M6566 2561 c-3 -5 3 -7 14 -4 29 8 25 -12 -6 -26 -32 -14 -26 -36 10
-37 25 -1 27 2 24 35 -3 35 -28 55 -42 32z m34 -41 c0 -13 -28 -25 -38 -16 -3
4 0 11 8 16 20 13 30 12 30 0z"/>
<path d="M6755 2561 c-4 -7 0 -8 10 -4 10 3 21 0 27 -8 8 -12 9 -11 5 1 -5 18
-33 25 -42 11z"/>
<path d="M6823 2530 c0 -25 2 -35 4 -22 2 12 2 32 0 45 -2 12 -4 2 -4 -23z"/>
<path d="M6857 2563 c-13 -12 -7 -23 18 -35 28 -12 23 -32 -6 -25 -11 3 -17 1
-13 -4 8 -14 30 -11 44 6 10 12 7 17 -14 26 -31 14 -35 34 -6 26 11 -3 18 -1
14 4 -6 11 -28 12 -37 2z"/>
<path d="M6930 2555 c-15 -18 -10 -45 12 -59 12 -7 21 -7 28 0 8 8 4 10 -12
10 -18 -1 -23 4 -23 24 0 19 5 25 22 24 12 0 20 3 17 8 -8 13 -30 9 -44 -7z"/>
<path d="M7036 2561 c-3 -5 2 -7 13 -4 17 4 20 -1 24 -34 l4 -38 -1 40 c-1 29
-6 41 -18 43 -9 2 -19 -1 -22 -7z"/>
<path d="M7106 2563 c-3 -3 -6 -11 -6 -17 0 -6 4 -5 9 3 12 19 41 6 41 -19 0
-25 -29 -38 -41 -19 -6 9 -9 10 -9 2 0 -17 17 -25 40 -18 15 5 20 15 20 38 0
27 -4 33 -24 35 -13 1 -26 -1 -30 -5z"/>
<path d="M7225 2560 c-3 -5 0 -7 9 -4 8 3 21 2 28 -2 9 -6 4 -11 -17 -15 l-30
-7 33 -1 c34 -1 40 7 20 27 -15 15 -35 16 -43 2z"/>
<path d="M7333 2530 c0 -25 2 -35 4 -22 2 12 2 32 0 45 -2 12 -4 2 -4 -23z"/>
<path d="M4812 2520 c0 -19 2 -27 5 -17 2 9 2 25 0 35 -3 9 -5 1 -5 -18z"/>
<path d="M4501 2490 c1 -19 3 -27 6 -17 2 9 11 17 18 17 8 0 17 4 20 10 4 6
-1 7 -10 3 -10 -3 -21 0 -26 8 -6 10 -8 3 -8 -21z"/>
<path d="M6170 2512 c0 -18 29 -27 43 -13 9 9 8 11 -7 5 -11 -4 -21 -2 -27 7
-6 10 -9 11 -9 1z"/>
<path d="M6790 2511 c0 -8 -8 -11 -20 -8 -11 3 -20 1 -20 -4 0 -13 37 -11 45
2 4 6 4 13 1 16 -3 4 -6 1 -6 -6z"/>
<path d="M7223 2510 c5 -18 35 -26 50 -11 7 7 3 8 -13 4 -13 -4 -26 0 -32 8
-8 12 -9 11 -5 -1z"/>
<path d="M4650 2500 c0 -6 7 -10 15 -10 8 0 15 2 15 4 0 2 -7 6 -15 10 -8 3
-15 1 -15 -4z"/>
<path d="M5228 2498 c6 -6 18 -8 28 -6 14 3 12 5 -9 10 -19 3 -25 2 -19 -4z"/>
<path d="M6400 2500 c0 -6 7 -10 15 -10 8 0 15 2 15 4 0 2 -7 6 -15 10 -8 3
-15 1 -15 -4z"/>
<path d="M7107 2468 c2 -5 10 -8 18 -8 8 0 16 3 18 8 3 4 -5 7 -18 7 -13 0
-21 -3 -18 -7z"/>
<path d="M4030 2310 c0 -29 2 -51 4 -49 8 8 10 88 3 95 -4 4 -7 -17 -7 -46z"/>
<path d="M4107 2353 c-3 -5 -1 -28 3 -53 l7 -45 2 53 c1 49 -2 62 -12 45z"/>
<path d="M4789 2349 c-2 -29 3 -74 9 -81 4 -4 6 13 5 38 -1 43 -12 74 -14 43z"/>
<path d="M4990 2351 c0 -5 -9 -11 -20 -14 -38 -10 -37 -64 1 -75 8 -2 6 2 -5
10 -21 17 -18 51 6 56 13 2 18 -6 21 -35 3 -32 4 -30 5 15 1 28 0 52 -3 52 -3
0 -5 -4 -5 -9z"/>
<path d="M5762 2310 c1 -43 2 -46 5 -17 3 23 9 37 18 37 9 0 15 -14 18 -37 l4
-38 1 38 c2 28 -3 39 -15 44 -10 4 -21 11 -25 17 -4 6 -7 -14 -6 -44z"/>
<path d="M6063 2310 c0 -30 2 -43 4 -27 2 15 2 39 0 55 -2 15 -4 2 -4 -28z"/>
<path d="M6093 2310 c0 -30 2 -43 4 -27 2 15 2 39 0 55 -2 15 -4 2 -4 -28z"/>
<path d="M6909 2349 c-2 -29 3 -74 9 -81 4 -4 6 13 5 38 -1 43 -12 74 -14 43z"/>
<path d="M4156 2331 c-3 -5 3 -7 14 -4 29 8 25 -12 -6 -26 -32 -14 -26 -36 10
-37 25 -1 27 2 24 35 -3 35 -28 55 -42 32z m34 -41 c0 -13 -28 -25 -38 -16 -3
4 0 11 8 16 20 13 30 12 30 0z"/>
<path d="M4225 2320 c-10 -32 4 -63 25 -57 11 3 21 0 24 -7 2 -6 5 9 5 34 1
41 -1 46 -23 48 -17 1 -27 -5 -31 -18z m40 -20 c0 -27 -22 -39 -31 -16 -8 22
3 49 19 43 6 -2 12 -14 12 -27z"/>
<path d="M4301 2295 l2 -40 6 35 c4 22 12 35 21 35 9 0 17 -13 21 -35 6 -34 6
-34 8 -5 1 39 -10 54 -37 52 -19 -1 -22 -7 -21 -42z"/>
<path d="M4387 2333 c-3 -5 6 -8 19 -8 13 0 24 3 24 8 0 4 -9 7 -19 7 -11 0
-22 -3 -24 -7z"/>
<path d="M4503 2300 c0 -25 2 -35 4 -22 2 12 2 32 0 45 -2 12 -4 2 -4 -23z"/>
<path d="M4534 2327 c-3 -9 -4 -28 -1 -44 3 -23 4 -22 6 10 1 25 6 37 15 37
10 0 16 -14 19 -37 l4 -38 -1 40 c-1 29 -6 41 -19 43 -9 2 -20 -3 -23 -11z"/>
<path d="M4650 2325 c-15 -18 -10 -45 12 -59 12 -7 21 -7 28 0 8 8 4 10 -11
10 -12 -1 -24 5 -26 12 -3 7 6 12 24 13 l28 1 -30 8 c-24 5 -27 8 -13 14 9 4
22 4 29 0 8 -4 9 -3 5 4 -10 16 -31 15 -46 -3z"/>
<path d="M4727 2333 c-13 -13 -7 -31 13 -36 11 -3 20 -11 20 -17 0 -8 -8 -10
-21 -7 -16 4 -19 3 -11 -5 14 -14 42 -3 42 16 0 8 -9 18 -20 21 -26 8 -26 29
0 22 11 -3 18 -1 14 4 -6 11 -28 12 -37 2z"/>
<path d="M4877 2333 c-3 -5 6 -8 19 -8 13 0 24 3 24 8 0 4 -9 7 -19 7 -11 0
-22 -3 -24 -7z"/>
<path d="M5080 2336 c0 -2 7 -7 16 -10 8 -3 12 -2 9 4 -6 10 -25 14 -25 6z"/>
<path d="M5167 2333 c-13 -12 -7 -23 18 -35 28 -12 23 -32 -6 -25 -11 3 -17 1
-13 -4 8 -14 30 -11 44 6 10 12 7 17 -14 26 -31 14 -35 34 -6 26 11 -3 18 -1
14 4 -6 11 -28 12 -37 2z"/>
<path d="M5240 2325 c-15 -18 -10 -45 12 -59 12 -7 21 -7 28 0 8 8 4 10 -12
10 -18 -1 -23 4 -23 24 0 19 5 25 22 24 12 0 20 3 17 8 -8 13 -30 9 -44 -7z"/>
<path d="M5344 2327 c-3 -9 -4 -28 -1 -44 3 -23 4 -22 6 10 1 25 6 37 15 37
10 0 16 -14 19 -37 l4 -38 -1 40 c-1 29 -6 41 -19 43 -9 2 -20 -3 -23 -11z"/>
<path d="M5415 2320 c-10 -32 4 -63 25 -57 11 3 21 0 24 -7 2 -6 5 9 5 34 1
41 -1 46 -23 48 -17 1 -27 -5 -31 -18z m40 -20 c0 -13 -6 -25 -12 -27 -16 -6
-27 21 -19 43 9 23 31 11 31 -16z"/>
<path d="M5533 2300 c0 -25 2 -35 4 -22 2 12 2 32 0 45 -2 12 -4 2 -4 -23z"/>
<path d="M5561 2295 l2 -40 6 35 c4 22 12 35 21 35 9 0 17 -13 21 -35 6 -34 6
-34 8 -5 1 39 -10 54 -37 52 -19 -1 -22 -7 -21 -42z"/>
<path d="M5682 2281 l1 -56 6 50 c4 35 10 50 21 50 22 0 25 -37 4 -53 -11 -8
-13 -12 -5 -10 43 13 37 72 -8 74 -19 1 -21 -3 -19 -55z"/>
<path d="M5836 2332 c-3 -5 6 -7 19 -4 33 6 32 -12 -1 -27 -32 -14 -26 -36 10
-37 25 -1 27 2 24 35 -2 28 -8 37 -25 39 -11 2 -24 -1 -27 -6z m44 -42 c0 -13
-28 -25 -38 -16 -3 4 0 11 8 16 20 13 30 12 30 0z"/>
<path d="M5917 2333 c-13 -13 -7 -31 13 -36 11 -3 20 -11 20 -17 0 -8 -8 -10
-21 -7 -16 4 -19 3 -11 -5 14 -14 42 -3 42 16 0 8 -9 18 -20 21 -26 8 -26 29
0 22 11 -3 18 -1 14 4 -6 11 -28 12 -37 2z"/>
<path d="M5984 2326 c-16 -42 20 -86 48 -58 6 6 0 8 -16 5 -19 -4 -26 -1 -26
11 0 10 9 16 25 16 14 0 25 4 25 9 0 4 -11 6 -25 3 -14 -2 -25 0 -25 6 0 6 10
13 23 15 l22 4 -23 2 c-12 0 -25 -5 -28 -13z"/>
<path d="M6124 2300 c1 -31 4 -35 29 -36 25 -1 27 1 26 40 l-2 41 -6 -35 c-8
-48 -38 -54 -44 -8 l-4 33 1 -35z"/>
<path d="M6207 2333 c-13 -13 -7 -32 13 -38 11 -3 20 -11 20 -17 0 -6 -9 -8
-20 -5 -11 3 -20 1 -20 -5 0 -5 10 -8 22 -6 30 4 35 34 9 43 -27 8 -27 29 -1
22 11 -3 18 -1 14 4 -6 11 -28 12 -37 2z"/>
<path d="M6313 2300 c0 -25 2 -35 4 -22 2 12 2 32 0 45 -2 12 -4 2 -4 -23z"/>
<path d="M6330 2336 c0 -2 7 -6 15 -10 8 -3 15 -1 15 4 0 6 -7 10 -15 10 -8 0
-15 -2 -15 -4z"/>
<path d="M6390 2325 c-15 -18 -10 -45 12 -59 12 -7 21 -7 28 0 8 8 4 10 -12
10 -18 -1 -23 4 -23 24 0 19 5 25 22 24 12 0 20 3 17 8 -8 13 -30 9 -44 -7z"/>
<path d="M6476 2331 c-3 -5 2 -7 13 -4 17 4 20 -1 24 -34 l4 -38 -1 40 c-1 29
-6 41 -18 43 -9 2 -19 -1 -22 -7z"/>
<path d="M6583 2300 c0 -25 2 -35 4 -22 2 12 2 32 0 45 -2 12 -4 2 -4 -23z"/>
<path d="M6611 2295 l2 -40 6 35 c4 22 12 35 21 35 9 0 17 -13 21 -35 6 -34 6
-34 8 -5 1 39 -10 54 -37 52 -19 -1 -22 -7 -21 -42z"/>
<path d="M6730 2288 c-3 -31 -1 -53 3 -49 5 5 7 30 5 57 l-3 49 -5 -57z"/>
<path d="M6764 2300 c1 -31 4 -35 29 -36 25 -1 27 1 26 40 l-2 41 -6 -35 c-8
-48 -38 -54 -44 -8 l-4 33 1 -35z"/>
<path d="M6847 2333 c-13 -13 -7 -32 13 -38 11 -3 20 -11 20 -17 0 -6 -9 -8
-20 -5 -11 3 -20 1 -20 -5 0 -5 10 -8 22 -6 30 4 35 34 9 43 -27 8 -27 29 -1
22 11 -3 18 -1 14 4 -6 11 -28 12 -37 2z"/>
<path d="M6950 2325 c-15 -18 -10 -45 12 -59 12 -7 21 -7 28 0 8 8 4 10 -12
10 -18 -1 -23 4 -23 24 0 19 5 25 22 24 12 0 20 3 17 8 -8 13 -30 9 -44 -7z"/>
<path d="M4390 2300 c-18 -12 -2 -12 25 0 13 6 15 9 5 9 -8 0 -22 -4 -30 -9z"/>
<path d="M4880 2300 c-18 -12 -2 -12 25 0 13 6 15 9 5 9 -8 0 -22 -4 -30 -9z"/>
<path d="M4075 2279 c-4 -6 -5 -12 -2 -15 2 -3 7 2 10 11 7 17 1 20 -8 4z"/>
<path d="M5061 2260 c1 -19 3 -27 6 -17 2 9 11 17 18 17 8 0 17 4 20 10 4 6
-1 7 -10 3 -10 -3 -21 0 -26 8 -6 10 -8 3 -8 -21z"/>
<path d="M4380 2270 c0 -6 7 -10 15 -10 8 0 15 2 15 4 0 2 -7 6 -15 10 -8 3
-15 1 -15 -4z"/>
<path d="M4870 2270 c0 -6 7 -10 15 -10 8 0 15 2 15 4 0 2 -7 6 -15 10 -8 3
-15 1 -15 -4z"/>
<path d="M9628 2263 c7 -3 16 -2 19 1 4 3 -2 6 -13 5 -11 0 -14 -3 -6 -6z"/>
<path d="M4228 2238 c5 -5 16 -8 23 -6 8 3 3 7 -10 11 -17 4 -21 3 -13 -5z"/>
<path d="M5418 2238 c5 -5 16 -8 23 -6 8 3 3 7 -10 11 -17 4 -21 3 -13 -5z"/>
<path d="M10704 2123 c16 -53 94 -333 101 -361 4 -18 9 -31 12 -29 2 3 -7 49
-21 104 -43 168 -66 268 -66 286 0 9 -7 17 -16 17 -10 0 -13 -6 -10 -17z"/>
<path d="M9311 2084 c0 -11 3 -14 6 -6 3 7 2 16 -1 19 -3 4 -6 -2 -5 -13z"/>
<path d="M9736 2038 c-3 -13 -7 -68 -10 -123 -8 -140 -43 -496 -51 -517 -5
-12 -2 -18 8 -18 10 0 16 16 21 58 6 56 33 423 41 555 4 66 0 88 -9 45z"/>
<path d="M4045 1925 c-25 -24 -25 -27 -25 -189 0 -174 7 -210 44 -220 28 -7
1104 -7 1132 0 37 10 44 46 44 220 0 162 0 165 -25 189 l-24 25 -561 0 -561 0
-24 -25z m345 -160 c10 -12 10 -15 -4 -15 -9 0 -16 5 -16 10 0 6 -7 10 -15 10
-8 0 -15 -7 -15 -15 0 -8 8 -15 19 -15 10 0 24 -7 31 -15 16 -20 -3 -45 -35
-45 -12 0 -28 7 -35 15 -14 17 0 21 17 4 13 -13 43 -5 43 10 0 5 -12 12 -27
16 -33 8 -46 25 -31 42 14 18 53 16 68 -2z m40 6 c0 -5 9 -11 20 -14 15 -4 20
-14 20 -41 0 -20 -4 -36 -10 -36 -5 0 -10 16 -10 35 0 19 -4 35 -10 35 -5 0
-10 -16 -10 -35 0 -19 -4 -35 -10 -35 -5 0 -10 23 -10 50 0 28 5 50 10 50 6 0
10 -4 10 -9z m295 -23 l20 -33 3 33 c5 51 22 37 22 -18 0 -59 -16 -66 -45 -17
l-20 32 -3 -32 c-5 -52 -22 -38 -22 17 0 59 16 66 45 18z m-180 -28 c0 -38
-24 -52 -50 -30 -31 25 -9 73 30 68 16 -2 20 -11 20 -38z m80 0 c0 -29 -4 -36
-22 -38 -13 -2 -23 -10 -23 -18 0 -8 -4 -14 -10 -14 -5 0 -10 25 -10 56 l0 55
33 -3 c29 -3 32 -6 32 -38z m254 16 c10 -21 10 -21 10 2 1 13 7 22 16 22 9 0
15 -9 16 -22 l0 -23 11 23 c18 36 26 25 15 -18 -12 -43 -37 -55 -38 -17 l0 22
-9 -22 c-13 -32 -27 -28 -36 10 l-8 32 -5 -30 c-5 -25 -11 -30 -36 -30 -24 0
-31 5 -33 23 -6 41 4 52 47 50 29 -1 42 -7 50 -22z"/>
<path d="M4504 1735 c-8 -19 2 -45 16 -45 5 0 10 14 10 30 0 31 -16 41 -26 15z"/>
<path d="M4584 1736 c-8 -21 3 -49 16 -41 5 3 10 15 10 25 0 25 -18 36 -26 16z"/>
<path d="M4804 1736 c-8 -21 3 -49 16 -41 5 3 10 15 10 25 0 25 -18 36 -26 16z"/>
<path d="M9701 1794 c0 -11 3 -14 6 -6 3 7 2 16 -1 19 -3 4 -6 -2 -5 -13z"/>
<path d="M9268 1763 c7 -3 16 -2 19 1 4 3 -2 6 -13 5 -11 0 -14 -3 -6 -6z"/>
<path d="M10835 1635 c3 -16 8 -38 12 -49 3 -12 1 -16 -6 -12 -6 4 -11 2 -11
-3 0 -6 7 -11 16 -11 13 0 15 7 9 38 -4 20 -11 44 -17 52 -6 11 -8 6 -3 -15z"/>
<path d="M6093 368 c-26 -13 -35 -43 -21 -73 28 -61 119 -23 101 43 -4 15 -44
45 -56 41 -1 0 -12 -5 -24 -11z"/>
<path d="M87 3 c51 -2 135 -2 185 0 51 1 10 3 -92 3 -102 0 -143 -2 -93 -3z"/>
<path d="M5358 3 c1332 -2 3512 -2 4845 0 1332 1 242 2 -2423 2 -2665 0 -3755
-1 -2422 -2z"/>
</g>
</svg>
