<?xml version="1.0" standalone="no"?>
<!DOCTYPE svg PUBLIC "-//W3C//DTD SVG 20010904//EN"
 "http://www.w3.org/TR/2001/REC-SVG-20010904/DTD/svg10.dtd">
<svg version="1.0" xmlns="http://www.w3.org/2000/svg"
 width="225.000000pt" height="225.000000pt" viewBox="0 0 225.000000 225.000000"
 preserveAspectRatio="xMidYMid meet">

<g transform="translate(0.000000,225.000000) scale(0.100000,-0.100000)"
fill="#000000" stroke="none">
<path d="M0 1125 l0 -1125 1125 0 1125 0 0 1125 0 1125 -1125 0 -1125 0 0
-1125z m1282 710 c101 -21 194 -70 259 -135 59 -59 113 -150 124 -213 l7 -37
-144 0 -144 0 -34 52 c-45 67 -104 99 -198 106 -155 11 -271 -66 -295 -195 -6
-30 -3 -34 31 -52 58 -29 154 -57 325 -96 183 -41 260 -70 331 -123 226 -171
180 -527 -86 -663 -20 -10 -72 -28 -114 -40 -97 -27 -265 -29 -368 -5 -207 49
-353 187 -400 379 l-6 27 153 0 154 0 18 -41 c42 -93 147 -144 284 -138 142 7
239 81 257 197 l7 42 -68 31 c-39 17 -159 52 -279 80 -118 28 -238 62 -271 78
-82 39 -148 100 -182 169 -25 51 -28 67 -28 162 0 97 2 110 31 171 57 119 173
208 320 243 77 19 232 19 316 1z"/>
</g>
</svg>
